<?xml version="1.0" encoding="utf-8"?>
<!-- Generator: Adobe Illustrator 27.9.0, SVG Export Plug-In . SVG Version: 6.00 Build 0)  -->
<svg version="1.1" id="Ñëîé_1" xmlns="http://www.w3.org/2000/svg" xmlns:xlink="http://www.w3.org/1999/xlink" x="0px" y="0px"
	 viewBox="0 0 4350 2300" style="enable-background:new 0 0 4350 2300;" xml:space="preserve">
<style type="text/css">
	.st0{fill:#CAE7F5;}
	.st1{fill:#A4D6FF;}
	.st2{fill:#90D1FC;}
	.st3{fill:#89C9F4;}
	.st4{fill:#B3D9E8;}
	.st5{fill:#B0DFFF;}
	.st6{fill:#1C1C70;}
	.st7{fill:#F4F8F9;}
	.st8{fill:#FFFFFF;}
	.st9{opacity:0.1;fill:#3266A5;}
	.st10{fill:#FCDA35;}
	.st11{fill:#F4940B;}
	.st12{fill:#8181EF;}
	.st13{fill:#BFCCF7;}
	.st14{fill:#A4A3FA;}
	.st15{fill:#8989F7;}
	.st16{fill:#7878EF;}
	.st17{fill:#BBBBF9;}
	.st18{fill:#A9BAEA;}
	.st19{fill:#3A61C1;}
	.st20{fill:#2F54B2;}
	.st21{fill:#1F4AA0;}
	.st22{fill:#4A76CE;}
	.st23{fill:#436BC4;}
	.st24{fill:#123E84;}
	.st25{fill:#073784;}
	.st26{fill:#5286DB;}
	.st27{fill:#5485D3;}
	.st28{fill:#4278C6;}
	.st29{fill:#5C93E5;}
	.st30{fill:#EB8E6C;}
	.st31{fill:#DD8064;}
	.st32{fill:#F75454;}
	.st33{fill:#0E1647;}
	.st34{fill:#5F53B7;}
	.st35{fill:#C36252;}
	.st36{fill:#161237;}
	.st37{fill:#23173D;}
	.st38{fill:#FEFDFB;}
	.st39{fill:#050530;}
	.st40{fill:#524BAF;}
	.st41{fill:#F4CBD5;}
	.st42{fill:#FAFCFF;}
	.st43{fill:#5482CC;}
	.st44{fill:#615BBC;}
	.st45{fill:#E1F2F9;}
	.st46{fill:#95CDE8;}
	.st47{fill:#D0EDFC;}
	.st48{fill:#FCD054;}
	.st49{fill:#FFDE83;}
	.st50{fill:#FFDD71;}
	.st51{fill:#78AEEF;}
	.st52{fill:#97D0F7;}
	.st53{fill:#7593D8;}
	.st54{fill:#8EB7E8;}
	.st55{fill:#F43627;}
	.st56{fill:#283AA3;}
	.st57{fill:#3845B8;}
	.st58{fill:#191960;}
	.st59{fill:#121251;}
	.st60{fill:#1E2F47;}
	.st61{fill:#17253F;}
	.st62{fill:#04041C;}
	.st63{fill:#F0FDFF;}
	.st64{fill:#49302A;}
	.st65{fill:#4254BC;}
</style>
<g>
	<path class="st0" d="M3846.48,1952.09c89.51-214.04,149.68-542.02-33.6-954.87c-129.5-291.7-377.62-411.71-472.39-462.97
		c-724.22-391.67-1325.6,126.46-1415.22,204.21c-177.73,154.2-413.85,192.94-657.86,184.55
		c-658.56-22.64-974.35,541.41-614.78,1064.94L3846.48,1952.09z"/>
	<g>
		<path class="st1" d="M3586.35,495.55c-26.36-1.03-64.94,8.72-81.97,32.97c-33.14,47.18,43.75,108.57,86.19,208.28
			c76.98,180.86-14.64,358.08,11.38,360.08c27.78,2.14,147.69-198.85,120.65-393.5C3719.64,682.08,3692.16,499.69,3586.35,495.55z"
			/>
		<path class="st2" d="M3586.35,495.55c-3.34-0.13-6.87-0.09-10.53,0.14c19.81,10.3,41.71,24.93,61.88,45.77
			c64.23,66.37,66.61,150.04,67.72,188.87c0.54,18.81,1.77,114.55-62.5,225.28c-9.67,16.66-19.93,32.12-30.49,46.45
			c-9.89,56.98-22.28,93.92-10.49,94.83c27.78,2.14,147.69-198.85,120.65-393.5C3719.64,682.08,3692.16,499.69,3586.35,495.55z"/>
		<g>
			<path class="st3" d="M3599.16,593.79c-1.58-0.15-2.46-0.23-4.04-0.38c-1.39,0.97-1.84,2.71-1.02,3.89
				c27.65,39.88,47.72,84.03,59.69,131.3c25.17,99.4,9.1,192.12-9.27,253.27c-0.46,1.52,0.42,2.91,1.97,3.13
				c1.56,0.21,3.2-0.85,3.66-2.37c18.57-61.81,34.81-155.55,9.36-256.07C3647.42,678.76,3627.12,634.11,3599.16,593.79z"/>
		</g>
	</g>
	<ellipse class="st4" cx="2226.8" cy="1952.86" rx="1707.19" ry="102.87"/>
	<g>
		<path class="st1" d="M3833.49,902.66c-456.74,416.59-195.73,970.88-146.92,1064.07c1.07,2.05,3.77,1.16,3.18-1.05
			c-18.72-70.13-86.16-381.38,93.97-685.13c88.3-148.9,261.39-295.97,294.78-342.85C4142.67,847.61,4060.91,695.23,3833.49,902.66z"
			/>
		<path class="st2" d="M3833.49,902.66c-455.81,415.73-181,1022.19-147.22,1063.49c1.52,1.86,3.93,1.22,3.32-1.08
			c-8.86-33.36-28.13-119.03-27.75-231.76c-36.39-95.84-61.08-205.08-52.25-315.99c5.82-73,29.28-185.87,85.76-294.83
			c30.28-58.4,59.53-95.42,98.46-144.67c55.41-70.1,104.86-116.62,165.69-144.3c23.77-10.82,48.6-18.45,79.69-13.44
			c21.39,3.45,39.79,11.93,54.16,20.74C4070.25,785.6,3983.6,765.74,3833.49,902.66z"/>
		<g>
			<path class="st3" d="M3905.87,978.43c-1.29-1.64-3.43-2.02-4.78-0.84c-55.95,49.16-104.83,106.83-145.3,171.46
				c-51.81,82.73-90.23,177.94-111.13,275.34c-28.99,135.13-22.87,255.36-12.63,332.42c3.28,24.7,7.54,49.66,12.66,74.23
				c0.42,2.01,2.24,3.5,4.06,3.31c1.81-0.18,2.93-1.95,2.51-3.95c-5.08-24.38-9.3-49.13-12.56-73.63
				c-10.16-76.45-16.23-195.73,12.53-329.82c20.73-96.66,58.87-191.15,110.29-273.26c40.17-64.15,88.68-121.39,144.22-170.19
				C3907.1,982.34,3907.15,980.07,3905.87,978.43L3905.87,978.43z"/>
		</g>
		<g>
			<path class="st1" d="M3759.39,1465.65c-131.45,202.87-102.42,489.29-70.34,501.37c0.63,0.24,1.25,0.35,1.85,0.37l7.88-7.26
				c20.76-41.04,32.64-246.93,190.37-388.5c99.19-89.04,216.85-117.43,204.47-187.27c-6.37-35.9-44.28-66.84-74.2-79.42
				C3899.34,1254.47,3773.77,1443.45,3759.39,1465.65z"/>
			<path class="st2" d="M3759.39,1465.65c-131.45,202.87-102.42,489.29-70.34,501.37c0.63,0.24,1.24,0.36,1.84,0.37l7.88-7.27
				c7.82-15.45,14.38-54.28,27.94-104.25c-4.3-21.46-7.7-44.04-9.8-67.63c-13.99-156.86,37.21-262.93,47.6-283.62
				c21.44-42.7,67.66-134.72,173.78-175.26c33.33-12.73,65.36-17.63,92.79-18.8c-3.96-2.15-7.88-4.04-11.67-5.63
				C3899.34,1254.47,3773.77,1443.45,3759.39,1465.65z"/>
			<g>
				<path class="st3" d="M3817.63,1524.32c-80.68,98.78-111.37,211.71-122.84,290.27c-0.28,1.93,1,3.97,2.84,4.54
					c1.84,0.57,3.54-0.53,3.83-2.46c11.36-77.72,41.71-189.42,121.49-287.1c37.94-46.45,83.3-85.22,134.87-115.27
					c1.53-0.89,1.93-3.06,0.89-4.87c-1.83-0.65-2.86-1.02-4.7-1.67C3901.86,1438.14,3855.99,1477.34,3817.63,1524.32z"/>
			</g>
		</g>
	</g>
	<g>
		<path class="st1" d="M551.12,1585.97c-17.34-12.96-167.32-122.34-243.44-47.29c-18.97,18.7-38.64,54.06-33,83.86
			c10.96,57.96,108.21,44.91,209.15,84.5c147.74,57.94,217.88,195.1,249.67,236.59l20.66-6.07
			C753.7,1878.3,689.31,1689.24,551.12,1585.97z"/>
		<path class="st2" d="M551.12,1585.97c-17.34-12.96-167.32-122.34-243.44-47.29c-2.4,2.37-4.81,5-7.19,7.86
			c21.09-7.28,46.74-13.03,75.65-13.08c92.06-0.17,153.8,57.54,182.45,84.33c13.88,12.97,83.48,80.12,118.56,206.19
			c5.28,18.96,9.28,37.52,12.27,55.48c19.57,27.44,33.82,50.79,44.07,64.18l20.66-6.07C753.7,1878.3,689.31,1689.24,551.12,1585.97z
			"/>
		<path class="st5" d="M498.84,977.51C268,809.1,208.6,962.15,277.01,1039.36c35.6,40.18,210.18,158.2,306.91,287.92
			c184.45,247.37,170.53,526.38,159.82,617.47l7.12-0.27C796.35,1814.08,939.53,1299.02,498.84,977.51z"/>
		<path class="st1" d="M498.84,977.51c-152.37-111.16-230.04-82.26-245.57-27.56c12.31-9.99,28.36-20.14,47.68-25.91
			c28.09-8.39,51.74-4.13,74.73,3.25c58.86,18.88,109.19,56.83,167.47,116.28c40.94,41.76,71.71,73.15,105.64,124.55
			c63.31,95.89,96.63,199.35,109.57,267.37c19.66,103.34,8.29,209.06-15.23,303.55c10.45,91.87,5.22,166.35,0.59,205.72l8.74-0.33
			C794.76,1836.17,929.55,1291.73,498.84,977.51z"/>
		<g>
			<path class="st1" d="M773.01,1757.64c1.41-73.73-5.45-187.61-46.17-311.37c-29.35-89.21-74.61-174.29-130.88-246.04
				c-43.96-56.05-94.93-104.57-151.53-144.24c-1.36-0.95-3.3-0.34-4.31,1.35l0,0c-1.01,1.69-0.73,3.82,0.63,4.77
				c56.18,39.38,106.77,87.53,150.41,143.17c55.85,71.22,100.77,155.65,129.9,244.18c40.41,122.81,47.22,235.78,45.82,308.93
				c-0.45,23.44-1.76,47.24-3.9,70.78c-0.18,1.93,1.04,3.46,2.72,3.42c1.69-0.04,3.22-1.65,3.39-3.6
				C771.23,1805.27,772.55,1781.28,773.01,1757.64z"/>
		</g>
		<g>
			<path class="st3" d="M524.15,1648.94c-42.69-25.05-88.8-41.83-137.08-49.88c-1.2,1.06-1.87,1.65-3.07,2.7
				c-0.26,1.71,0.68,3.28,2.09,3.52c47.75,7.97,93.34,24.55,135.55,49.33c88.78,52.1,144.25,129.84,175.46,186.84
				c0.77,1.41,2.38,1.76,3.61,0.77c1.23-0.99,1.6-2.96,0.83-4.38C670.01,1780.22,613.93,1701.63,524.15,1648.94z"/>
		</g>
		<path class="st5" d="M794.82,754.07c-91.86,5.52-108.19,164.5-109.88,183.06c-13.46,147.91,70.49,297.97,108.16,332.37l15.78-9.73
			c-8.26-44.23-55.67-168.09-7.71-296.02c32.77-87.4,97.11-142.14,66.32-182.53C851.67,760.46,817.71,752.69,794.82,754.07z"/>
		<path class="st1" d="M684.94,937.12c-13.46,147.91,70.49,297.97,108.16,332.37l15.78-9.73c-2.66-14.27-9.41-36.84-15.71-65.16
			c-9.77-12.25-19.35-25.5-28.45-39.8c-60.5-95.03-63.41-178.24-63.73-194.59c-0.65-33.76-2.05-106.5,51.06-165.33
			c16.68-18.48,35.13-31.58,51.93-40.89c-3.19-0.13-6.27-0.1-9.17,0.07C702.96,759.59,686.63,918.56,684.94,937.12z"/>
		<g>
			<path class="st1" d="M787.76,839.65c-22.64,35.54-38.45,74.71-46.99,116.46c-17.96,87.8,0.06,168.94,18.78,222.31
				c0.46,1.31,1.93,2.21,3.28,1.99c1.34-0.21,2.04-1.44,1.59-2.75c-18.52-52.79-36.35-133.06-18.59-219.88
				c8.44-41.29,24.07-80.01,46.47-115.17c0.66-1.04,0.2-2.55-1.05-3.36C789.89,839.41,789.12,839.5,787.76,839.65z"/>
		</g>
	</g>
	<g>
		<g>
			<g>
				<g>
					<path class="st6" d="M2285.75,427.26h-652.98c-48.47,0-87.76,39.29-87.76,87.76v1393.87c0,48.47,39.29,87.77,87.76,87.77
						h652.98c48.47,0,87.77-39.29,87.77-87.77V515.03C2373.51,466.56,2334.22,427.26,2285.75,427.26z"/>
					<path class="st7" d="M2284.66,460.11h-653.4c-30.31,0-54.88,24.57-54.88,54.88v1394.07c0,30.31,24.57,54.88,54.88,54.88h653.4
						c30.31,0,54.88-24.57,54.88-54.88V514.99C2339.54,484.68,2314.97,460.11,2284.66,460.11z"/>
					<polygon class="st8" points="1576.38,1057.23 1576.38,1320.93 2095.4,460.11 1919.59,460.11 					"/>
					<path class="st9" d="M2288.37,459.87c22.75,170.84,30.82,420.58-51.29,701.41c-52.66,180.11-119.93,410.52-328.74,587.53
						c-104.06,88.21-218.46,142.32-329.07,174.44c6.32,23.33,27.71,40.69,53.02,40.69h653.15c30.26,0,54.12-24.91,54.12-55.17
						V514.64C2339.54,485.49,2317.09,461.59,2288.37,459.87z"/>
				</g>
			</g>
		</g>
		<g>
			<path class="st6" d="M1959.26,1849.87c-10.45,0-18.91,8.47-18.91,18.91c0,10.45,8.47,18.91,18.91,18.91
				c10.45,0,18.91-8.47,18.91-18.91C1978.17,1858.34,1969.7,1849.87,1959.26,1849.87z"/>
			<path class="st6" d="M1871.74,1849.87c-10.45,0-18.91,8.47-18.91,18.91c0,10.45,8.47,18.91,18.91,18.91
				c10.45,0,18.91-8.47,18.91-18.91C1890.66,1858.34,1882.19,1849.87,1871.74,1849.87z"/>
			<path class="st6" d="M2046.77,1849.87c-10.45,0-18.91,8.47-18.91,18.91c0,10.45,8.47,18.91,18.91,18.91
				c10.45,0,18.91-8.47,18.91-18.91C2065.69,1858.34,2057.22,1849.87,2046.77,1849.87z"/>
		</g>
	</g>
	<g>
		<g>
			
				<rect x="2763.72" y="1044.86" transform="matrix(0.568 -0.823 0.823 0.568 314.3062 2904.936)" class="st10" width="321.37" height="216.4"/>
			<path class="st11" d="M2906.97,1161.84l15.32,184.99l182.54-264.49l-178.44,51.31C2914.37,1137.5,2906.3,1149.2,2906.97,1161.84z
				"/>
			<path class="st10" d="M2914.04,1166.69l8.24,180.15l182.54-264.49l-171.36,56.2C2921.55,1142.45,2913.47,1154.15,2914.04,1166.69
				z"/>
			<path class="st11" d="M2922.48,1172.55c12.06-3.86,20.13-15.56,19.47-28.16l-15.32-185.04l-182.54,264.49L2922.48,1172.55z"/>
			<path class="st10" d="M2915.44,1167.65c11.93-3.91,20-15.61,19.43-28.15l-8.24-180.15l-182.54,264.49L2915.44,1167.65z"/>
		</g>
		<g>
			<g>
				<path class="st12" d="M2570.42,965.9l-100.22,184.75l326.26-156.82l-206.88-37.15C2581.88,955.31,2574.15,959.02,2570.42,965.9z
					"/>
				
					<rect x="2506.5" y="1059.59" transform="matrix(0.9013 -0.4332 0.4332 0.9013 -248.0533 1281.1886)" class="st12" width="361.99" height="250.7"/>
				
					<rect x="2512.6" y="1014.39" transform="matrix(0.9013 -0.4332 0.4332 0.9013 -232.4056 1267.0004)" class="st8" width="303.16" height="258.24"/>
				<path class="st13" d="M2636.66,1145.86l-47.6,22.88c-2.31,1.11-5.11,0.13-6.22-2.18l0,0c-1.11-2.31-0.13-5.11,2.18-6.22
					l47.6-22.88c2.31-1.11,5.11-0.13,6.22,2.18l0,0C2639.96,1141.95,2638.97,1144.75,2636.66,1145.86z"/>
				<path class="st13" d="M2698.41,1116.18l-41.69,20.04c-2.31,1.11-5.11,0.13-6.22-2.18l0,0c-1.11-2.31-0.13-5.11,2.18-6.22
					l41.69-20.04c2.31-1.11,5.11-0.13,6.22,2.18l0,0C2701.71,1112.27,2700.72,1115.07,2698.41,1116.18z"/>
				<path class="st13" d="M2693.68,1149.81l-57.82,27.79c-2.31,1.11-5.11,0.13-6.22-2.18l0,0c-1.11-2.31-0.13-5.11,2.18-6.22
					l57.82-27.79c2.31-1.11,5.11-0.13,6.22,2.18l0,0C2696.97,1145.9,2695.99,1148.7,2693.68,1149.81z"/>
				<path class="st13" d="M2738.68,1127.24l-19.99,9.61c-2.31,1.11-5.11,0.13-6.22-2.18l0,0c-1.11-2.31-0.13-5.11,2.18-6.22
					l19.99-9.61c2.31-1.11,5.11-0.13,6.22,2.18v0C2741.97,1123.33,2740.99,1126.13,2738.68,1127.24z"/>
				<path class="st13" d="M2751.03,1090.89l-22.82,10.97c-2.31,1.11-5.11,0.13-6.22-2.18l0,0c-1.11-2.31-0.13-5.11,2.18-6.22
					l22.82-10.97c2.31-1.11,5.11-0.13,6.22,2.18l0,0C2754.32,1086.98,2753.34,1089.78,2751.03,1090.89z"/>
				<path class="st13" d="M2683.21,1186.21l-45.88,22.05c-2.31,1.11-5.11,0.13-6.22-2.18l0,0c-1.11-2.31-0.13-5.11,2.18-6.22
					l45.88-22.05c2.31-1.11,5.11-0.13,6.22,2.18l0,0C2686.51,1182.3,2685.52,1185.1,2683.21,1186.21z"/>
				<path class="st13" d="M2749.21,1154.48l-44.76,21.51c-2.31,1.11-5.11,0.13-6.22-2.18l0,0c-1.11-2.31-0.13-5.11,2.18-6.22
					l44.76-21.51c2.31-1.11,5.11-0.13,6.22,2.18l0,0C2752.5,1150.58,2751.52,1153.37,2749.21,1154.48z"/>
				<polygon class="st14" points="2578.66,1376.32 2681.64,1202.37 2470.08,1150.42 				"/>
				<polygon class="st14" points="2905.77,1219.1 2706.58,1190.78 2797.19,993.19 				"/>
				<path class="st15" d="M2681.64,1202.37l-35.04-8.6c5.35,3.5,9.2,7.8,9.41,13.23c0.69,17.92-52.65,99.55-80.37,163.03l3.02,6.28
					L2681.64,1202.37z"/>
				<path class="st15" d="M2725.23,1173.73c-3.67-3.18-4.82-8.07-4.59-13.61l-14.06,30.66l199.19,28.31l-3.02-6.28
					C2835.86,1194.81,2738.8,1185.46,2725.23,1173.73z"/>
				<path class="st16" d="M2677.69,1189.08l-100.75,183.66l1.72,3.59l327.11-157.22l-1.58-3.28l-207.35-35.95
					C2689.19,1178.59,2681.47,1182.3,2677.69,1189.08z"/>
				<path class="st14" d="M2678.3,1190.36l-100.22,184.75l326.26-156.82l-206.88-37.15
					C2689.76,1179.77,2682.04,1183.48,2678.3,1190.36z"/>
				<path class="st15" d="M2718.8,1184.98c49.78,10.14,130.08,28.49,135.02,43.79c4.97,15.37-98.72,58.86-197.93,110.43
					l249.88-120.1l-0.36-0.75L2718.8,1184.98z"/>
				<path class="st17" d="M2519.63,1202.93L2519.63,1202.93c-3.56,1.71-7.88,0.2-9.59-3.36l-3.15-6.56
					c-1.71-3.56-0.2-7.88,3.36-9.59l0,0c3.56-1.71,7.88-0.2,9.59,3.36l3.15,6.56C2524.7,1196.91,2523.19,1201.22,2519.63,1202.93z"
					/>
				<path class="st17" d="M2578.25,1328.06L2578.25,1328.06c-2.88,1.39-6.38,0.16-7.76-2.72l-49.08-102.12
					c-1.39-2.88-0.16-6.38,2.72-7.76l0,0c2.88-1.39,6.38-0.16,7.76,2.72l49.08,102.12
					C2582.36,1323.19,2581.13,1326.68,2578.25,1328.06z"/>
				<path class="st18" d="M2588.3,1126.01l-0.02,0.07c-0.81,3.56-2.37,6.82-4.65,9.67c-2.28,2.86-5.48,5.6-9.5,8.16
					c-5.12,3.14-10.11,5.3-14.84,6.42c-4.72,1.12-9.18,1.29-13.26,0.51c-4.08-0.78-7.74-2.45-10.9-4.98
					c-3.16-2.52-5.72-5.82-7.63-9.78c-1.43-2.98-2.48-6.12-3.12-9.34c-0.64-3.22-0.82-6.38-0.54-9.41c0.29-3.46,1.2-6.72,2.69-9.7
					c1.49-2.97,3.6-5.74,6.27-8.23c2.67-2.49,5.93-4.67,9.69-6.48c3.69-1.77,7.29-2.87,10.7-3.26c3.4-0.39,6.57-0.16,9.41,0.69
					c2.84,0.84,5.41,2.25,7.63,4.19c2.22,1.94,4.02,4.32,5.35,7.08c1.59,3.31,2.34,6.77,2.22,10.27c-0.12,3.5-0.78,6.58-1.97,9.15
					c-1.18,2.55-2.4,4.14-3.61,4.73c-0.33,0.16-0.68,0.16-1.05,0c-0.37-0.16-0.69-0.49-0.92-0.99c-0.24-0.5-0.58-1.63-1.01-3.35
					l-6.78-27.79l-9.52,4.57l0.93,4.05c-3.42-2.03-7.22-2.06-11.32-0.09c-3.67,1.76-6.46,4.52-8.28,8.19
					c-1.82,3.66-2.67,7.7-2.54,12c0.13,4.3,1.09,8.33,2.85,11.99c1.7,3.53,3.92,6.17,6.61,7.84c2.69,1.68,5.57,2.44,8.55,2.26
					c2.97-0.17,5.7-1.18,8.09-2.98c2.33-1.75,4.05-4.09,5.13-6.97c1.01,1.13,2.18,1.77,3.49,1.9c1.38,0.14,3.04-0.25,4.95-1.17
					c3.27-1.57,6.02-3.76,8.18-6.51c2.16-2.74,3.72-5.86,4.66-9.25c0.94-3.39,1.25-6.9,0.93-10.44c-0.32-3.53-1.24-6.91-2.75-10.03
					c-1.93-4.01-4.41-7.38-7.4-10.04c-2.98-2.66-6.42-4.59-10.23-5.75c-3.8-1.16-7.91-1.5-12.23-1.02
					c-4.31,0.48-8.74,1.8-13.16,3.93c-5.4,2.59-9.97,5.91-13.59,9.85c-3.62,3.95-6.26,8.32-7.84,12.99
					c-1.58,4.67-2.17,9.63-1.75,14.73c0.42,5.1,1.84,10.2,4.22,15.15c2.28,4.75,5.21,8.75,8.7,11.91c3.5,3.15,7.55,5.42,12.04,6.75
					c4.49,1.32,9.46,1.64,14.77,0.94c5.3-0.7,10.89-2.45,16.61-5.2c3.81-1.83,7.21-3.9,10.11-6.15c2.9-2.25,5.36-4.71,7.33-7.3
					c1.97-2.6,3.47-5.38,4.48-8.27c1.01-2.89,1.52-5.92,1.54-9l0-0.25L2588.3,1126.01z M2556.76,1113.39c1.18,2.46,2,5.26,2.41,8.31
					c0.41,3.04,0.21,5.86-0.6,8.37c-0.81,2.49-2.3,4.28-4.44,5.31c-1.83,0.88-3.69,0.87-5.51-0.04c-1.84-0.91-3.44-2.77-4.76-5.52
					c-1.3-2.7-2.12-5.56-2.46-8.5c-0.34-2.94-0.07-5.62,0.79-7.97c0.86-2.33,2.31-4,4.31-4.97c1-0.48,1.99-0.72,2.95-0.73
					c0.96,0,1.9,0.23,2.8,0.69c0.91,0.46,1.75,1.12,2.5,1.95C2555.5,1111.13,2556.18,1112.17,2556.76,1113.39z"/>
				<path class="st13" d="M2739.68,1067.28l-92.93,44.67c-2.31,1.11-5.11,0.13-6.22-2.18l0,0c-1.11-2.31-0.13-5.11,2.18-6.22
					l92.93-44.67c2.31-1.11,5.11-0.13,6.22,2.18l0,0C2742.97,1063.37,2741.99,1066.17,2739.68,1067.28z"/>
				<path class="st13" d="M2724.17,1024.11l-62.54,30.06c-2.31,1.11-5.11,0.13-6.22-2.18l0,0c-1.11-2.31-0.13-5.11,2.18-6.22
					l62.54-30.06c2.31-1.11,5.11-0.13,6.22,2.18l0,0C2727.46,1020.2,2726.48,1023,2724.17,1024.11z"/>
			</g>
		</g>
		<g>
			<polygon class="st19" points="3007.64,1964.27 2515.71,1964.27 2466.91,1202.95 3056.45,1202.95 			"/>
			<polygon class="st19" points="3007.64,1964.27 2515.71,1964.27 2466.91,1202.95 3056.45,1202.95 			"/>
			<path class="st20" d="M2952.01,1202.95l-20.85,325.26c-13.36,208.44-186.32,370.67-395.19,370.67h-24.46l4.19,65.4h491.93
				l48.8-761.33H2952.01z"/>
			<polygon class="st21" points="3048.66,1324.44 2475.26,1328.86 2476.86,1358.25 3046.49,1358.25 			"/>
			<polygon class="st21" points="3053.9,1250.39 2470.32,1257.2 2472.91,1296.66 3050.44,1296.66 			"/>
			<polygon class="st22" points="3070.11,1279.08 2453.24,1279.08 2445.43,1202.95 3077.92,1202.95 			"/>
			<polygon class="st23" points="2971.84,1202.95 2964.03,1279.08 3070.11,1279.08 3077.92,1202.95 			"/>
			<path class="st22" d="M3049.6,1336.67h-575.85c-6.74,0-12.2-5.46-12.2-12.2l0,0c0-6.74,5.46-12.2,12.2-12.2h575.85
				c6.74,0,12.2,5.46,12.2,12.2l0,0C3061.8,1331.2,3056.34,1336.67,3049.6,1336.67z"/>
			<path class="st23" d="M3049.6,1336.67h-81.9v-24.4h81.9c6.74,0,12.2,5.46,12.2,12.2l0,0
				C3061.8,1331.2,3056.34,1336.67,3049.6,1336.67z"/>
			<path class="st24" d="M2761.68,1907.66L2761.68,1907.66c-19.95,0-36.11-16.17-36.11-36.11V1416.7
				c0-19.95,16.17-36.11,36.11-36.11l0,0c19.95,0,36.11,16.17,36.11,36.11v454.84C2797.79,1891.49,2781.62,1907.66,2761.68,1907.66z
				"/>
			<path class="st21" d="M2761.68,1907.66L2761.68,1907.66c-12.55,0-22.73-10.18-22.73-22.73v-481.62
				c0-12.55,10.18-22.73,22.73-22.73l0,0c12.55,0,22.73,10.18,22.73,22.73v481.62C2784.4,1897.49,2774.23,1907.66,2761.68,1907.66z"
				/>
			<path class="st21" d="M2874.52,1907.66L2874.52,1907.66c-18.06,0-32.64-14.75-32.44-32.8l5.14-462.18
				c0.2-17.78,14.66-32.08,32.44-32.08h6.85c18.25,0,32.91,15.04,32.43,33.28l-11.98,462.18
				C2906.5,1893.64,2892.11,1907.66,2874.52,1907.66z"/>
			<path class="st21" d="M2969.26,1907.66L2969.26,1907.66c-14.28,0-25.69-11.89-25.11-26.16l19.43-476.8
				c0.55-13.47,11.63-24.11,25.11-24.11h10.6c14.5,0,25.99,12.24,25.08,26.71l-30.02,476.8
				C2993.51,1897.35,2982.53,1907.66,2969.26,1907.66z"/>
			<path class="st25" d="M2886.5,1380.59h-6.85c-2.52,0-4.97,0.3-7.32,0.84c14.68,3.39,25.51,16.72,25.11,32.44l-11.98,462.18
				c-0.36,13.82-9.32,25.43-21.68,29.77c3.36,1.18,6.98,1.83,10.75,1.83h0c17.59,0,31.98-14.02,32.43-31.6l11.98-462.18
				C2919.41,1395.63,2904.75,1380.59,2886.5,1380.59z"/>
			<path class="st25" d="M2999.28,1380.59h-10.6c-1.87,0-3.69,0.21-5.44,0.6c11.81,2.61,20.41,13.52,19.62,26.11l-30.02,476.8
				c-0.59,9.41-6.31,17.34-14.33,21.14c3.26,1.54,6.9,2.42,10.75,2.42l0,0c13.27,0,24.25-10.31,25.08-23.55l30.02-476.8
				C3025.28,1392.83,3013.79,1380.59,2999.28,1380.59z"/>
			<path class="st21" d="M2648.83,1907.66L2648.83,1907.66c18.06,0,32.64-14.75,32.44-32.8l-5.14-462.18
				c-0.2-17.78-14.66-32.08-32.44-32.08h-6.85c-18.25,0-32.91,15.04-32.43,33.28l11.98,462.18
				C2616.86,1893.64,2631.24,1907.66,2648.83,1907.66z"/>
			<path class="st21" d="M2554.09,1907.66L2554.09,1907.66c14.28,0,25.69-11.89,25.11-26.16l-19.43-476.8
				c-0.55-13.47-11.63-24.11-25.11-24.11h-10.6c-14.5,0-26,12.24-25.08,26.71l30.02,476.8
				C2529.84,1897.35,2540.82,1907.66,2554.09,1907.66z"/>
			<path class="st24" d="M2637.9,1876.06l-11.98-462.18c-0.41-15.72,10.43-29.05,25.1-32.44c-2.36-0.54-4.81-0.84-7.33-0.84h-6.85
				c-18.25,0-32.91,15.04-32.43,33.28l11.98,462.18c0.46,17.58,14.84,31.6,32.43,31.6l0,0c3.77,0,7.38-0.65,10.75-1.83
				C2647.22,1901.49,2638.26,1889.88,2637.9,1876.06z"/>
			<path class="st24" d="M2550.51,1884.11l-30.02-476.8c-0.79-12.6,7.81-23.5,19.62-26.11c-1.75-0.39-3.57-0.6-5.44-0.6h-10.6
				c-14.5,0-26,12.24-25.08,26.71l30.02,476.8c0.83,13.24,11.82,23.55,25.08,23.55h0c3.85,0,7.49-0.87,10.75-2.42
				C2556.82,1901.44,2551.1,1893.52,2550.51,1884.11z"/>
			<path class="st26" d="M2577.39,1245.78h-85.92c-7.36,0-13.53-5.58-14.26-12.91v0c-0.84-8.44,5.78-15.76,14.26-15.76h85.92
				c7.92,0,14.33,6.42,14.33,14.33l0,0C2591.72,1239.36,2585.3,1245.78,2577.39,1245.78z"/>
		</g>
		<g>
			<g>
				<path class="st21" d="M3275.94,1766.69l-103.49-168.6l12.22-7.5c43.43-26.66,100.45-13.01,127.11,30.42l14.3,23.29
					c26.66,43.43,13.01,100.45-30.42,127.11l-12.22,7.5L3275.94,1766.69z M3212.73,1608.91l79.3,129.19
					c20.69-20.35,25.43-53.04,9.62-78.8l-14.3-23.29C3271.53,1610.24,3240.24,1599.67,3212.73,1608.91z"/>
			</g>
			<path class="st27" d="M3365.14,1828.64l-200.05-325.92c-25.27-41.17-67.52-68.98-115.32-75.93h0l330.87,539.04v0
				C3396.09,1920.07,3390.41,1869.81,3365.14,1828.64z"/>
			<path class="st28" d="M3380.64,1965.84c15.45-45.77,9.77-96.03-15.5-137.2l-71.93-117.19c25.27,41.17,30.95,91.43,15.5,137.2l0,0
				L3380.64,1965.84L3380.64,1965.84z"/>
			<path class="st29" d="M3158.82,1586.95l-71.98-117.27c-4.54-7.39,24.13,0.84,29.36,9.36l52.97,86.29
				C3174.04,1573.28,3163.7,1594.9,3158.82,1586.95z"/>
		</g>
	</g>
	<g>
		<path class="st30" d="M3585,1349.42c13.48-2.5,27.17,50.91,33.73,109.43c2.79,24.9-12.21,67.21-15.35,84.49
			c-3.73,20.54-10.99,31.67-10.02,53.94c0.59,13.52,3.86,22.99,5.55,28.51c14.08,46.02,6.53,105.87,4.76,119.96
			c-5.2,41.27-15.06,86.95-14.68,115.09c0.16,11.69,6.89,43.89,5.78,52.82c-1.13,9.07-11.95,14.64-18.86,23.87
			c-1.87,2.5-11.07,14.49-27.81,23.3c-2.54,1.34-11.1-4.96-1.4-22.61c3.23-5.87,12.33-51.03,13.48-62.76
			c3.09-31.4,0.65-61.93-1.05-82.23c-6.24-74.56-28.66-161.72-31.07-186.37c-1.36-13.91,8.52-100.99,14.94-163.8
			C3551.53,1359.62,3582.19,1349.94,3585,1349.42z"/>
		<path class="st31" d="M3599.11,1504.12c5.05-15.77,11.07-37.11,16.37-63.95c1.42,6.11,2.53,12.36,3.24,18.67
			c2.79,24.9-12.21,67.21-15.35,84.49c-3.73,20.54-10.99,31.67-10.02,53.94c0.59,13.52,3.86,22.99,5.55,28.51
			c14.08,46.02,6.53,105.87,4.76,119.96c-5.2,41.27-15.06,86.95-14.68,115.09c0.16,11.69,6.89,43.89,5.78,52.82
			c-0.17,1.35-0.56,2.62-1.11,3.84c-11.14-27.66-13.42-50.47-12.71-68.01c0.66-16.28,4.41-40.54,8.29-65.74
			c4.04-26.17,8.13-46.83,7.96-74.11c-0.1-16.19-1.66-28.95-2.13-32.62c-1.38-10.75-3.1-18.74-5.35-29.14
			c-5.72-26.39-8.65-30.98-9.33-44.91c-0.43-8.76,0.3-15.81,1.55-24.38C3587.52,1540.25,3598.42,1506.27,3599.11,1504.12z"/>
		<path class="st30" d="M3593.4,1406.54c17.68-13.98,56-27.79,75.37,12.55c12.11,25.22,20.21,96.02,21.54,118.12
			c1.27,21.23-0.18,37.35,4.84,66.41c2.44,14.13,5.61,26.66,6.76,31.08c5.32,20.51,10.82,35.07,12.64,39.98
			c11.22,30.32,28.4,76.76,34.96,129.21c1.38,11.03,4.95,41.71,7.71,66.16c0.79,7.05,6.39,14.83,8.01,21.31
			c5.6,22.33,12.97,49.3,9.83,55.17c-2.26,4.24-9.77,3.72-14.29,1.87c-1.57-0.64-14.07,11.69-22.4-5.5
			c-4.9-10.12-10.39-53.22-10.39-53.22c-1.35-4.34-29.47-59.92-48.07-113.08c-6.74-19.26-19.15-68.82-27.57-109.91
			c-1.83-8.91-3.56-17.28-6.65-28.47c-4.94-17.86-10.27-31.7-17.41-48.94c-15.24-36.75-16.11-34.28-24.29-55.19
			c-10.52-26.9-24.85-67.4-25.66-96.69C3577.79,1417.73,3583.04,1414.73,3593.4,1406.54z"/>
		<path class="st31" d="M3690.31,1537.21c1.27,21.23-0.18,37.35,4.84,66.41c2.44,14.13,5.61,26.66,6.76,31.08
			c5.32,20.51,10.82,35.07,12.64,39.98c11.22,30.32,28.41,76.76,34.96,129.21c1.38,11.03,4.95,41.71,7.71,66.16
			c0.79,7.05,6.39,14.83,8.01,21.31c5.6,22.33,12.97,49.3,9.83,55.17c-0.35,0.66-0.84,1.19-1.41,1.63
			c-3.48-15.31-9.01-36.9-17.69-62.47c-5.27-15.5-5.63-14.63-8.5-23.98c-10.53-34.35-5.05-44.32-12.56-84.19
			c-4.87-25.86-11.99-47.2-16.62-59.72c-6.27-16.96-7.24-15.7-15.76-37.95c-6.12-15.99-13.32-34.94-19.17-60.45
			c-4.41-19.24-6.13-33.56-6.48-36.64c-1.66-14.25-1.52-21.71-2.3-36.8c-1.01-19.72-2.46-30.83-4.54-50.97
			c-1.87-18.16-4.43-45.39-7.65-86.5c2.3,3.02,4.45,6.53,6.4,10.6C3680.88,1444.31,3688.98,1515.1,3690.31,1537.21z"/>
		<path class="st32" d="M3532.37,1960.52c2.01-3.84,3.67-6.43,5.6-9.46c6.27-9.84,8.18-13.11,8.73-12.85
			c1,0.47-6.57,9.39-2.99,13.54c2.61,3.03,11.02,0.66,15.43-1.36c4.68-2.14,8.61-3.47,14.63-14.89c9.01-17.1,12.17-33,12.71-35.83
			c2.78-14.5,2.11-23.07,5.04-23.57c3.43-0.58,8.14,10.5,8.61,11.61c1.25,2.95,2.66,6.27,2.6,10.77c-0.07,4.99-1.91,8.57-4.37,13.22
			c-2.66,5.03-3.64,5.26-8.73,12.85c-4.34,6.47-6.59,9.86-8.64,15.02c-2.22,5.57-3.04,10.23-3.32,12.09
			c-0.48,3.12-0.51,6.66-0.55,13.61c-0.06,10.84,0.3,12.49-1,15.8c-0.64,1.62,0.57,9.76-35.53,8.47c-3.76-0.13-6.01-0.56-7.7-2.41
			c-1.2-1.3-4.35-15.3-3.99-18.32C3529.15,1966.73,3530.23,1964.63,3532.37,1960.52z"/>
		<path class="st32" d="M3600.64,1895.68c1.08,0.63-0.67,3.39-5.02,24.11c-1.32,6.26-2.03,10.16-2.48,15.14
			c-0.57,6.24-0.46,11.28-0.36,13.78c0.57,14.57,0.38,21.91,0.4,23.9c0.02,1.78-5.16,2.32-5.23,0.57c-0.06-1.63-1.26-7.8-1.5-24.04
			c-0.07-4.67-0.27-7.62-1.17-11.19c-1.35-5.35-3.18-7.74-4.02-9.99C3576.6,1915.5,3597.4,1893.78,3600.64,1895.68z"/>
		<path class="st32" d="M3727.98,1889.69c0.62-0.1,1.98,4.99,2.7,8.59c0.89,4.48,1.02,7.88,1.1,9.56
			c0.18,3.72,0.71,13.36,3.44,22.87c1.99,6.94,3.06,10.46,6.49,12.97c4.58,3.35,10.15,2.68,14.58,2.14
			c3.67-0.44,13.17-1.6,16.17-8.07c1.37-2.96,1.19-6.64,1.15-7.47c-0.14-2.97-0.97-5.12-1.33-6.11c-1.82-5-1.23-6.71-3-16.19
			c-2.28-12.26-5.09-19.27-4.75-19.38c0.4-0.13,4.95,9.46,7.39,21.81c0.96,4.87,0.83,6.28,2.35,13.68
			c1.15,5.55,1.53,6.27,3.06,13.28c1.64,7.51,2.46,11.26,2.79,15.47c0.17,2.21,0.05,5.94-0.19,13.41
			c-0.32,9.9-0.67,12.02-2.35,13.86c-1.47,1.61-3.61,2.17-7.84,3.21c-7.29,1.79-13.64,3.36-20.98,0.83
			c-2.17-0.75-5.32-1.87-8.16-4.75c-2.36-2.4-4.06-5.56-5.62-13.91c-1.4-7.47-1.04-10.3-1.95-21.66
			c-0.58-7.32-1.28-13.06-1.76-16.96c-1.32-10.82-1.93-12.51-2.58-19.46C3728.51,1905.58,3726.9,1889.86,3727.98,1889.69z"/>
		<path class="st33" d="M3623.31,1033.09c9.97,0.81,31.14,22.93,40.15,41.32c5.83,11.9,3.94,13.81,8.83,18.83
			c13.14,13.48,31,3.96,53.63,16.41c11.88,6.53,18.49,15.5,20.79,18.69c10.78,14.94,20.34,42.19,8.66,60.46
			c-13.72,21.46-49.66,19.47-68.59,14.66c-47.09-11.97-73.25-62.94-78.49-102.09C3604.36,1071.9,3610.24,1032.03,3623.31,1033.09z"
			/>
		<path class="st34" d="M3543.25,1176.79c26.32,4.24,4.31,49.94,2,67.13c-2.59,19.32-46.82,42.28-64.3,65.51
			c-10.77,14.31-23.99,30.08-36.83,34.48c-7.03,2.41-10.52,5.14-14.57-0.48c-13.66-18.95,9.48-45.06,18.27-63.89
			C3452.01,1270.57,3499.01,1169.66,3543.25,1176.79z"/>
		<path class="st30" d="M3547.11,1370.44c-0.85-31.05-8.72-38.47-19.49-108.79c-6.59-43.03-11.08-62.94-0.3-81.02
			c2.85-4.79,61.48-16.42,85.94-15.64c15.62,0.5,23.49,0.77,27.02,1.7c14.18,3.74,60.39,9.97,69.98,19.14
			c11.72,11.21,0.94,42.78-3.88,64.14c-2.75,12.16-8.11,24.88-16.84,46.39c-16.5,40.67-16.66,52.94-16.73,67.84
			c-0.26,53.16,36.01,60.13,45.71,191.75c0.46,6.18-8.59,7.34-19.67,10.63c-47.94,14.24-81.66,13.96-81.66,13.96
			c-45.14-0.38-97.36-1.12-98.93-17.56C3510.89,1485.94,3548.16,1408.85,3547.11,1370.44z"/>
		<path class="st33" d="M3607.84,1028.12c32.12,4.26,46.83,28.72,50.86,53.78c0.77,4.79,3.57,22.19-6.48,37.96
			c-9.03,14.16-26.01,23.18-40.7,20.5c-32.87-6-77.46-68.46-55.19-94.43C3568.16,1032.12,3594.31,1026.33,3607.84,1028.12z"/>
		<path class="st30" d="M3569.86,1185.25c4.29-3.58,16.4-18.24,18.04-25.34c1.9-8.22-2.98-17.8-2.67-25.11
			c0.72-17.02,54.35-43.8,51.88-32.9c-8.48,37.47-0.47,64.07,18.43,68.02c13.49,2.82-22.23,63.85-76.37,54.61
			c-14.22-2.43-19.31-33.93-10.86-43.12C3569.87,1179.69,3565.74,1188.68,3569.86,1185.25z"/>
		<path class="st35" d="M3587.2,1151.34c13.04-3.48,24.21-9.21,30.1-15.25c7-7.17,10.25-14.74,11.65-16.78
			c0.38,0.33,0.68,0.71,0.93,1.13c-4.1,37.21-42.13,44.01-44.07,44.46C3587.9,1159.91,3588.74,1155.8,3587.2,1151.34z"/>
		<path class="st30" d="M3561.57,1045.05c12.69-9.56,27.91-6.87,31.94-6c17.4,3.78,26.91,17.42,30.68,22.84
			c13.26,19.02,11.43,39.26,10.87,44.61c-1.77,16.82-23.91,54.32-48.87,47.78c-8.44-2.21-13.95-6.58-19.34-14.07
			c-7.18-9.98-7.2-19.94-10.75-29.45c-4.25-11.39-6.22-20.15-6.77-25.98C3548.95,1080.82,3544.44,1057.97,3561.57,1045.05z"/>
		<path class="st33" d="M3565.74,1039.5c1-0.53,1.95-1.13,2.92-1.62c5.45-2.72,10.96-3.89,15.93-4.23
			c8.28-0.56,15.07,1.18,17.64,1.93c18.99,5.56,27.89,21.24,31.43,27.47c4.86,8.55,6.48,12.03,7.35,19.63
			c-14.47,4.6-77.02,15.64-84.47-17.74c-0.66-2.94-9.96,18.15-2.45,40.11C3550.32,1098.19,3530.17,1058.4,3565.74,1039.5z"/>
		<g>
			<g>
				<path class="st30" d="M3629.46,1081.74c4.27,0.09,7.56,5.93,8.71,9.85c2.75,9.36-2.82,21.03-7.52,20.89
					c-5.23-0.15-12.22-14.99-8.39-24.32C3622.4,1087.83,3625.03,1081.65,3629.46,1081.74z"/>
			</g>
			<g>
				<path class="st35" d="M3626.42,1092.03c2-1.21,4.47-0.46,5.79,0.87c2.3,2.32,1.86,6.78,0.78,9.9c-0.45,1.3-1.36,3.38-2.68,3.73
					c-0.14,0.04-1.72,0.25-0.47-2.13c0.1-0.19,0.19-0.35,0.27-0.51c0.08-0.15,0.18-0.34,0.29-0.54c0.64-1.22,0.37-0.71,0.02-0.04
					c0.48-0.95,1.12-2.42,1.33-4.03c0.3-2.2-0.01-3.95-0.86-4.8c-0.78-0.78-2.31-1.2-3.44-0.51c-0.83,0.5-1.34,1.51-1.42,2.68
					c-0.03,0.52-0.37,0.95-0.84,0.99c-0.63,0.06-1.19-0.53-1.15-1.22C3624.16,1094.52,3625.03,1092.88,3626.42,1092.03z"/>
				<path class="st35" d="M3629.85,1104.39c0-0.02,0.08-0.16,0.21-0.39C3629.93,1104.23,3629.85,1104.39,3629.85,1104.39z"/>
				<path class="st35" d="M3630.4,1103.34c-0.08,0.15-0.18,0.33-0.29,0.54c-0.02,0.04-0.04,0.08-0.07,0.12
					c0.11-0.21,0.24-0.46,0.37-0.7C3630.42,1103.31,3630.41,1103.33,3630.4,1103.34z"/>
			</g>
			<g>
				<path class="st35" d="M3621.91,1088.73c-0.18,0.6,0.18,1.27,0.75,1.43c0.5,0.14,1-0.14,1.15-0.67c0.42-1.45,1.36-3.6,3.42-4.75
					c0.58-0.33,1.95-1.09,3.56-0.65c1.51,0.41,2.44,1.68,3.11,2.61c1.71,2.35,2.69,5.3,2.91,8.77c0.4,6.46-2.05,12.37-3.9,13.2
					c-0.57,0.26-0.64,0.83-0.71,1.5c-0.21,1.82-0.63,3.56-2.31,4l0,0c-0.84,0.22-1.24,0.09-1.76-1.2c-0.21-0.54-0.76-0.83-1.25-0.67
					l0,0c-0.55,0.19-0.81,0.85-0.57,1.45c0.6,1.5,1.7,3.18,4.14,2.55l0,0c3.18-0.83,3.58-4.41,3.73-5.75c0-0.03,0.01-0.07,0.01-0.1
					c2.59-1.72,5.03-8.17,4.61-15.01c-0.3-4.91-2-8.17-3.36-10.04c-0.77-1.05-2.06-2.81-4.26-3.42c-2.33-0.64-4.22,0.41-4.93,0.81
					C3623.62,1084.26,3622.43,1086.94,3621.91,1088.73z M3633.76,1110.7L3633.76,1110.7L3633.76,1110.7z"/>
			</g>
			<path class="st35" d="M3627.21,1097.36c1.22,0.74,1.55,2.31,1.71,3.09c0.36,1.69,0.05,3.4-0.25,3.41
				c-0.41,0.01-0.18-3.07-2.15-4.99c-1.02-0.99-2.08-1.14-2.04-1.49C3624.54,1096.97,3626.05,1096.65,3627.21,1097.36z"/>
		</g>
		<g>
			<path class="st36" d="M3580.57,1090.96c2.57-1.21,5.23-2.23,7.94-3.06c4.3-1.32,8.75-2.14,13.25-2.47
				c1.12-0.08,2.1,0.78,2.14,1.9v0c0.04,1.06-0.76,1.97-1.82,2.05c-4.22,0.3-8.39,1.08-12.42,2.31c-2.53,0.77-5.03,1.74-7.44,2.87
				c-0.96,0.45-2.1,0.05-2.58-0.9C3579.13,1092.66,3579.55,1091.44,3580.57,1090.96z"/>
		</g>
		<g>
			<path class="st35" d="M3572.42,1101.78c0.54-0.12,1.05,0.18,1.14,0.67c0.64,3.51,1.08,7.1,1.31,10.69
				c0.11,1.72,0.16,3.17,0.21,4.46c0.12,3.58,0.19,5.37,1.35,6.27c1.42,1.09,4.36,0.67,8.31-1.17c0.48-0.23,1.05-0.06,1.27,0.36l0,0
				c0.24,0.45,0.01,1.02-0.5,1.26c-0.77,0.36-1.5,0.67-2.2,0.93c-3.69,1.38-6.44,1.4-8.19,0.05c-1.79-1.37-1.86-3.56-2-7.52
				c-0.04-1.27-0.09-2.72-0.21-4.41c-0.23-3.53-0.67-7.06-1.29-10.51C3571.54,1102.38,3571.89,1101.9,3572.42,1101.78z"/>
		</g>
		<path class="st37" d="M3590.08,1095.95c1.5-0.39,3.2,1.19,3.81,3.52c0.61,2.33-0.11,4.54-1.61,4.93c-1.5,0.39-3.2-1.19-3.81-3.52
			C3587.87,1098.55,3588.59,1096.34,3590.08,1095.95z"/>
		<path class="st37" d="M3562.76,1101.56c1.5-0.39,3.2,1.19,3.81,3.52c0.61,2.33-0.11,4.54-1.61,4.93c-1.5,0.39-3.2-1.19-3.81-3.52
			C3560.55,1104.16,3561.27,1101.95,3562.76,1101.56z"/>
		<g>
			<path class="st36" d="M3554.37,1096.6c2.93-0.93,5.92-1.66,8.93-2.19c2.3-0.4,4.59-0.68,6.83-0.83c1.12-0.07,2.08,0.8,2.11,1.92
				c0.03,1.06-0.78,1.96-1.84,2.03c-2.1,0.14-4.25,0.4-6.42,0.78c-2.85,0.5-5.68,1.2-8.46,2.07c-1.01,0.32-2.09-0.24-2.45-1.24
				C3552.71,1098.09,3553.3,1096.94,3554.37,1096.6z"/>
		</g>
		<path class="st38" d="M3576.19,1133.36l2.81-0.44c4.06-0.64,8.08-1.68,11.94-3.1l5.02-1.84c1.14-0.42,2.23,0.22,1.92,1.11
			c-0.93,2.68-5.94,7.03-11.3,8.47c-5.32,1.44-9.36-0.45-11.53-2.27C3574.31,1134.68,3574.97,1133.56,3576.19,1133.36z"/>
		<path class="st31" d="M3602.19,1104.38c3.78-1.52,7.61-0.83,8.56,1.53c0.95,2.36-1.35,5.51-5.12,7.02
			c-3.78,1.52-7.61,0.83-8.56-1.53C3596.12,1109.04,3598.41,1105.89,3602.19,1104.38z"/>
		<path class="st34" d="M3540.7,1361.35c-0.86-17.46-5.99-34.62-14.07-80.74c-1.14-6.1-2.29-12.77-3.41-20.12
			c-6.59-43.03-10.98-64.81,4-80.9c2.36-2.54,18.78-6.8,42.06-10.14c-6.79,61.35,57.5,66.71,83.65,35.7
			c5.37-6.37,13.9-19.21,18.9-32.02c16.26,3.37,37.76,8.6,43.12,13.72c11.72,11.21-3.75,41.76-8.58,63.12
			c-2.75,12.16-6.49,17.05-11.79,39.65c-17.37,74.06,11.84,151.65,19.89,182.71c15.92,45.04,23.43,102.46,26.59,182.07
			c0.6,15.07-220.46,29.65-222.09,13.21C3496.56,1440.66,3544.32,1434.63,3540.7,1361.35z"/>
		<g>
			<path class="st39" d="M3668.51,1083.63c2.97,8.61,4.76,13.8,14.12,16.15c3.02,0.76,5.19,1.3,7.98,1.62
				c6.75,0.78,10.34,1.17,12.46,1.4c2.35,0.26,2.91,0.32,3.95,0.49c2.36,0.38,8.59,1.6,15.37,4.71c6.66,3.05,12.72,7.41,18.01,12.98
				l-1.82,1.73c-5.07-5.33-10.87-9.52-17.24-12.43c-6.69-3.06-12.97-4.23-14.73-4.51c-0.98-0.16-1.52-0.22-3.82-0.47
				c-2.12-0.23-5.72-0.63-12.47-1.41c-2.95-0.34-5.19-0.9-8.3-1.68c-10.68-2.68-12.86-9.01-15.89-17.76
				c-3.81-11.03-9.02-26.15-34-45.16l1.52-2C3659.24,1056.76,3664.6,1072.29,3668.51,1083.63z"/>
		</g>
		<g>
			<path class="st39" d="M3563.62,1074.6c2.39,2.68,4.83,4.09,6.98,5.33c3.77,2.17,7.94,3.69,12.4,4.5l-0.45,2.47
				c-4.74-0.87-9.18-2.48-13.2-4.8c-2.2-1.27-4.94-2.85-7.6-5.84c-2.89-3.24-4.91-7.31-5.85-11.77l2.46-0.52
				C3559.2,1068.01,3561.03,1071.68,3563.62,1074.6z"/>
		</g>
		<path class="st40" d="M3697.16,1259.77c4.63-7.97,4.42,0.44,10.31-5.25c-2.71,11.1-3.14,14.99-8.22,36.63
			c-17.37,74.06,8.62,153.16,16.67,184.22c15.92,45.04,23.43,102.46,26.59,182.07c0.11,2.71-19.66,4.48-31.3,6.98
			c6.02-28.02-3.22-144.37-6.59-160.91c-7.44-36.46-9.55-44.72-17.52-77.92c-6.79-28.29-14.48-61.58-9.21-102.22
			C3680.21,1305.41,3687.81,1275.84,3697.16,1259.77z"/>
		<g>
			<path class="st41" d="M3518.47,1236.8L3518.47,1236.8c1.46-0.07,2.7,1.19,2.78,2.83c0.3,6.51,1.11,16.75,4.63,26.67
				c0.52,1.48-0.08,3.16-1.37,3.82l0,0c-1.38,0.71-3.03-0.01-3.59-1.6c-3.82-10.77-4.69-21.69-5-28.57
				C3515.83,1238.28,3516.98,1236.87,3518.47,1236.8z"/>
		</g>
		<g>
			
				<rect x="3282.45" y="1144.12" transform="matrix(0.2804 -0.9599 0.9599 0.2804 1163.0918 4264.0889)" class="st42" width="285.82" height="424.47"/>
			<path class="st4" d="M3407.1,1338.14l-225.58,96.05l407.45,119l-138.45-202.41C3440.69,1337.32,3422.67,1332.05,3407.1,1338.14z"
				/>
			<path class="st8" d="M3403.96,1349.03l-222.44,85.16l407.45,119l-141.64-191.5C3437.47,1348.37,3419.45,1343.1,3403.96,1349.03z"
				/>
			<path class="st4" d="M3400.12,1362.04c9.85,13.52,27.87,18.78,43.4,12.71l225.63-96.07l-407.45-119L3400.12,1362.04z"/>
			<path class="st8" d="M3403.34,1351.18c9.86,13.33,27.88,18.59,43.36,12.66l222.44-85.16l-407.45-119L3403.34,1351.18z"/>
		</g>
		<g>
			<path class="st43" d="M3718.85,1352.09c2.43-1.07,4.94-1.87,7.49-2.38c5.75-1.15,11.8-0.83,17.63,0.92
				c1.27,0.38,1.95,1.78,1.49,3.02c-0.43,1.15-1.68,1.76-2.85,1.4c-5.13-1.55-10.29-1.82-15.36-0.8c-2.21,0.44-4.38,1.13-6.5,2.06
				c-1.12,0.49-2.43,0.05-3-1.04l0-0.01C3717.14,1354.09,3717.63,1352.63,3718.85,1352.09z"/>
		</g>
		<path class="st44" d="M3711.65,1184.65c12.61,5.44,20.99,21.1,26.49,35.38c8.64,22.43,21.93,82.86,26.58,125.08
			c1.15,10.39,4.37,34.03-12.4,44.4c-7.69,4.76-16.91-3.64-26.19-11.09c-6.08-4.88-6.18-25.77-12.49-42.48
			c-1.5-3.96-2.7-7.39-8.23-24.95c-9.28-29.44-10.04-32.89-10.62-37.13c-1.6-11.66-0.64-20.37,0.66-31.43
			C3696.8,1230.87,3700.79,1179.96,3711.65,1184.65z"/>
		<g>
			<path class="st30" d="M3537.69,1447.51c1.96-1.07,3.95-0.08,6.39,0.47c5.52,1.25,10.34-0.4,15.15-2.05
				c2.16-0.74,6.32-2.21,10.5-5.74c3.36-2.83,6.35-6.66,5.79-7.31c-0.49-0.57-3.7,1.41-6.57,3.17c-6.73,4.14-7.6,6.06-11.29,6.74
				c-0.3,0.06-5.95,1.02-7.75-1.82c-1.1-1.72-0.25-4.02-0.18-4.2c1.5-3.93,6.6-3.84,14.16-7.97c4.45-2.43,3.49-2.9,7-4.73
				c2.33-1.22,7.31-3.39,24.97-3.19c10.02,0.12,9.94,0.83,13.9,0.2c7.83-1.25,12.97-4.82,17.51-7.76
				c19.37-12.52,20.09-8.32,36.62-19.92c11.39-8,20.27-10.94,21.24-11.88c11.61-11.27,28.43-8.49,34.04-10.42
				c13.53-4.66,15.54,22.08,14.16,25.03c-2.25,4.83-85.84,48.3-91.98,50.26c-1.74,0.55-6.07,2.02-11.5,4.95
				c-1.75,0.94-8.85,4.87-17.52,12.89c-8.34,7.72-8.85,10.64-15.03,13.5c-3.27,1.52-5.8,1.93-10.84,2.76
				c-1.15,0.19-10.84,1.69-21.55-1.13c-1.74-0.46-5.06-1.44-5.18-3.02c-0.11-1.48,2.62-2.63,2.34-3.29
				c-0.26-0.6-2.65,0.19-5.99,0.39c-2.53,0.15-7.13,0.43-8.35-1.75c-0.25-0.45-0.7-1.62,0.45-3.97c-3.09,0.81-6.14-0.24-7.52-2.45
				c-0.75-1.2-1.25-3.12-0.55-4.76c0.82-1.92,2.65-1.99,2.67-3.02c0.04-2-6.8-2.28-7.57-5.46
				C3534.79,1450.35,3536.16,1448.34,3537.69,1447.51z"/>
			<g>
				<path class="st35" d="M3543.96,1457.06c5.76,0.71,11.6,0.84,17.39,0.38c1.68-0.13,3.37-0.32,5.04-0.55
					c0.65-0.09,1.23,0.22,1.32,0.71l0,0c0.09,0.49-0.37,0.98-1.03,1.07c-0.67,0.09-1.34,0.18-2.02,0.26
					c-1.07,0.12-2.15,0.23-3.22,0.31c-6,0.48-12.06,0.34-18.02-0.39c-0.65-0.08-1.04-0.56-0.89-1.05h0
					C3542.7,1457.31,3543.33,1456.99,3543.96,1457.06z"/>
			</g>
			<g>
				<path class="st35" d="M3549.64,1466.48c3.51-0.03,7.06-0.19,10.57-0.46c3.62-0.28,7.27-0.69,10.88-1.22
					c0.67-0.1,1.27,0.21,1.37,0.69l0,0c0.09,0.49-0.38,0.98-1.06,1.08c-1.64,0.24-3.28,0.46-4.93,0.65
					c-2.06,0.24-4.13,0.44-6.18,0.6c-3.58,0.28-7.21,0.43-10.79,0.47c-0.68,0.01-1.2-0.4-1.15-0.91v0
					C3548.4,1466.89,3548.97,1466.49,3549.64,1466.48z"/>
			</g>
			<g>
				<path class="st35" d="M3563.51,1472.78c1.64-0.06,3.29-0.12,4.95-0.18c1.82-0.06,3.64-0.12,5.44-0.18
					c0.82-0.03,1.52,0.36,1.57,0.85v0c0.05,0.49-0.56,0.91-1.38,0.94c-1.81,0.06-3.62,0.12-5.43,0.18c-1.65,0.06-3.3,0.11-4.94,0.17
					c-0.81,0.03-1.52-0.35-1.57-0.84v0C3562.09,1473.24,3562.7,1472.81,3563.51,1472.78z"/>
			</g>
		</g>
		<path class="st44" d="M3610.04,1419.21c7.7-4,17.93-6.3,43.54-23.7c13.74-9.33,68.86-48.66,68.86-48.66
			c12.37-11.49,42.48,32.71,29.89,42.66c0,0-62.5,34.74-87.65,48.27c-24.52,13.19-24.52,13.19-36.44,17.82
			C3618.76,1459.29,3601.01,1423.89,3610.04,1419.21z"/>
		<g>
			<path class="st30" d="M3225.29,1208.08c19.15-16.54,27.07-15.77,26-12.77c-8.18,22.99-1.13,30.63-0.25,31.25
				c1.99,1.4,3.04,1.2,3.73,2.56c0.65,1.29,0.67,3.35-0.24,4.78c-0.44,0.69-0.86,0.85-1.09,1.65c-0.32,1.1,0.25,1.46,0.02,2.51
				c-0.34,1.5-1.87,2.38-2.1,2.51c-1.15,0.64-1.77,0.3-2.19,0.93c-0.47,0.7,0.21,1.27-0.11,2.52c-0.31,1.19-1.26,1.95-1.59,2.21
				c-1.16,0.93-2,0.75-2.17,1.32c-0.26,0.91,1.89,1.63,1.76,2.81c-0.08,0.67-0.61,1.59-4.84,3.2c-3,1.14-5.3,2.02-8.86,2.38
				c-3.14,0.32-6.03,0.61-9.31-0.77c-2.07-0.87-3.41-2.03-4.13-2.66c-3.66-3.24-2.88-5.38-7.1-12.54c-1.91-3.23-2.91-4.39-2.77-6.45
				C3210.76,1223.41,3220.78,1211.97,3225.29,1208.08z"/>
			<g>
				<path class="st35" d="M3223.79,1249.64c-0.11,0.25-0.01,0.54,0.23,0.67c1.48,0.77,3.5,2.19,4.75,3.08
					c1.08,0.77,1.31,0.92,1.49,0.97c1.69,0.49,3.13,0.38,3.9,0.33c3.19-0.23,6.79-0.88,8.61-1.24c0.28-0.06,0.46-0.33,0.4-0.61v0
					c-0.06-0.28-0.32-0.46-0.6-0.4c-1.79,0.35-5.35,1-8.49,1.23c-0.95,0.07-2.09,0.11-3.44-0.26c-0.05-0.01-0.1-0.03-0.14-0.06
					c-0.21-0.13-0.68-0.46-1.14-0.79c-1.35-0.96-3.33-2.36-4.87-3.15C3224.23,1249.26,3223.91,1249.37,3223.79,1249.64z
					 M3230.55,1253.37C3230.55,1253.37,3230.55,1253.37,3230.55,1253.37C3230.55,1253.37,3230.55,1253.37,3230.55,1253.37z"/>
			</g>
			<g>
				<path class="st35" d="M3228.34,1241.42L3228.34,1241.42c0.16-0.23,0.46-0.3,0.7-0.15c2.13,1.32,8,4.42,8.93,4.81
					c0.54,0.22,5.29,0.5,8.35,0.03c0.27-0.04,0.53,0.14,0.58,0.41c0.05,0.29-0.14,0.56-0.43,0.61c-3.09,0.46-8.09,0.24-8.9-0.1
					c-0.98-0.41-6.86-3.51-9.08-4.89C3228.24,1241.99,3228.17,1241.67,3228.34,1241.42z"/>
			</g>
			<g>
				<path class="st35" d="M3235.64,1233.36c1.14,0.44,2.27,0.93,3.36,1.46c2.24,1.08,3.86,1.87,5.71,3.29
					c0.56,0.44,0.97,0.79,1.29,1.08c0.61,0.54,0.92,0.81,1.6,1.05c0.92,0.32,1.96,0.36,3.07,0.13c0.26-0.05,0.52,0.11,0.59,0.37
					c0.08,0.29-0.11,0.58-0.4,0.64c-1.29,0.26-2.5,0.21-3.6-0.17c-0.88-0.3-1.3-0.68-1.95-1.25c-0.33-0.29-0.7-0.62-1.24-1.03
					c-1.76-1.36-3.34-2.12-5.53-3.18c-1.07-0.52-2.17-0.99-3.28-1.43c-0.26-0.1-0.4-0.39-0.3-0.66
					C3235.07,1233.39,3235.37,1233.26,3235.64,1233.36z"/>
			</g>
		</g>
	</g>
	<g>
		<path class="st45" d="M2990.29,850.84h-456.36c-5.8,0-10.49-4.7-10.49-10.49V557.36c0-5.8,4.7-10.49,10.49-10.49h456.36
			c5.8,0,10.49,4.7,10.49,10.49v282.99C3000.78,846.15,2996.08,850.84,2990.29,850.84z"/>
		<path class="st46" d="M2920.23,807.56h-316.24c-6.95,0-12.58-5.63-12.58-12.58V602.74c0-6.95,5.63-12.58,12.58-12.58h316.24
			c6.95,0,12.58,5.63,12.58,12.58v192.25C2932.81,801.93,2927.18,807.56,2920.23,807.56z"/>
		<path class="st47" d="M2679.63,687.77c-46.92,28.12-60.74,89.23-65.05,119.79h309.89c4.6,0,8.34-3.73,8.34-8.34v-27.3
			C2849.97,677.14,2741.35,650.79,2679.63,687.77z"/>
		<path class="st48" d="M2893.09,681.14c-82.72,31.27-139.48,84.34-174.72,126.41h206.09c4.6,0,8.34-3.73,8.34-8.34V668.48
			C2919.99,671.84,2906.71,676,2893.09,681.14z"/>
		<path class="st49" d="M2591.41,717.51v81.71c0,4.61,3.73,8.34,8.34,8.34h181.59c-24.76-22.11-61.03-48.64-109.66-68.08
			C2642.24,727.72,2614.8,721.16,2591.41,717.51z"/>
		
			<ellipse transform="matrix(0.1602 -0.9871 0.9871 0.1602 1741.2802 3340.1516)" class="st50" cx="2833.58" cy="646.76" rx="30.7" ry="30.7"/>
	</g>
	<g>
		<g>
			<path class="st8" d="M1251.74,1476.41H812.88c-8.16,0-14.77-6.61-14.77-14.77v-318.4c0-8.16,6.61-14.77,14.77-14.77h438.86
				c8.16,0,14.77,6.61,14.77,14.77v318.4C1266.51,1469.8,1259.9,1476.41,1251.74,1476.41z"/>
			<path class="st51" d="M1266.51,1143.69c0-8.41-6.82-15.23-15.23-15.23H813.33c-8.41,0-15.23,6.82-15.23,15.23v27.78h468.41
				V1143.69z"/>
			<g>
				<circle class="st8" cx="1204.4" cy="1150.06" r="5.37"/>
				<circle class="st8" cx="1182.86" cy="1150.06" r="5.37"/>
				<path class="st8" d="M1231.31,1150.06c0-2.97-2.4-5.37-5.37-5.37c-2.97,0-5.37,2.4-5.37,5.37c0,2.97,2.4,5.37,5.37,5.37
					C1228.91,1155.43,1231.31,1153.03,1231.31,1150.06z"/>
			</g>
		</g>
		<rect x="842.75" y="1197.05" class="st52" width="147.91" height="147.91"/>
		<rect x="842.75" y="1377.25" class="st52" width="147.91" height="61.9"/>
		<rect x="1032.31" y="1199.59" class="st52" width="192.77" height="91.46"/>
		<rect x="1032.31" y="1311.45" class="st52" width="192.77" height="41.71"/>
		<rect x="1032.31" y="1374.01" class="st52" width="192.77" height="41.71"/>
	</g>
	<g>
		<polygon class="st53" points="1166.07,527.82 1170.8,506.69 1295.84,506.69 1300.57,527.82 1334.17,527.82 1323.29,782.4 
			939.35,782.4 928.47,527.82 		"/>
		
			<rect x="953.29" y="543.89" transform="matrix(-1 -1.224647e-16 1.224647e-16 -1 2266.6887 1288.7676)" class="st8" width="360.12" height="200.98"/>
		<polygon class="st54" points="1137.22,558.36 1162.54,584.78 1348.12,584.78 1336.49,839.36 926.15,839.36 913.75,558.36 		"/>
	</g>
	<g>
		<path class="st12" d="M2136.61,814.73c-2.43-3.36-5.05-6.6-7.84-9.69c-3.49-3.86-7.27-7.51-11.3-10.89
			c-1.61-1.35-3.27-2.67-4.97-3.94l-50.51-37.83c8.52-25.75,0.21-55.21-22.67-72.35l-15.35-11.5c-22.88-17.14-53.48-16.83-75.8-1.41
			l-50.51-37.83c-27.14-20.33-61.9-27.55-94.89-19.71h0l355.35,266.15v0C2156.95,853.5,2149.36,832.37,2136.61,814.73z
			 M2011.9,684.63l15.35,11.5c13.82,10.35,19.95,27.23,17.3,43.19l-9.32-6.98c0,0,0,0,0,0l-69.66-52.17
			C1980.17,673.15,1998.08,674.28,2011.9,684.63z"/>
		<g>
			<polygon class="st12" points="2158.53,900.68 1757.39,900.68 1790.6,1418.7 2124.12,1418.7 			"/>
			<g>
				<path class="st8" d="M1957.96,1345.43L1957.96,1345.43c-9.16,0-16.59-7.43-16.59-16.59V987.82c0-9.16,7.43-16.59,16.59-16.59h0
					c9.16,0,16.59,7.43,16.59,16.59v341.02C1974.55,1338,1967.12,1345.43,1957.96,1345.43z"/>
			</g>
			<g>
				<path class="st8" d="M2050.72,1345.29L2050.72,1345.29c-9.15-0.35-16.29-8.05-15.94-17.21l13.02-340.77
					c0.35-9.15,8.05-16.29,17.21-15.94h0c9.15,0.35,16.29,8.05,15.94,17.21l-13.02,340.77
					C2067.57,1338.51,2059.87,1345.64,2050.72,1345.29z"/>
			</g>
			<g>
				<path class="st8" d="M1848,1329.35l-13.02-340.77c-0.35-9.15,6.79-16.86,15.94-17.21h0c9.15-0.35,16.86,6.79,17.21,15.94
					l13.02,340.77c0.35,9.15-6.79,16.86-15.94,17.21h0C1856.05,1345.64,1848.35,1338.51,1848,1329.35z"/>
			</g>
		</g>
	</g>
	<path class="st55" d="M2162.51,1700.75h-396.29c-31.75,0-57.49-25.74-57.49-57.49v-40.37c0-31.75,25.74-57.49,57.49-57.49h396.29
		c31.75,0,57.49,25.74,57.49,57.49v40.37C2220,1675.01,2194.26,1700.75,2162.51,1700.75z"/>
	<g>
		<path class="st8" d="M1811.47,1584.65c-3.55-1.01-7.86-1.53-12.82-1.53h-18.99c-3.24,0-5.64,0.82-7.11,2.45
			c-1.47,1.62-2.21,4.23-2.21,7.77v58.02c0,2.58,0.21,4.71,0.63,6.33c0.43,1.69,1.37,3.03,2.79,3.96c1.4,0.92,3.49,1.39,6.2,1.39
			h18.99c3.32,0,6.33-0.24,8.97-0.71c2.66-0.47,5.18-1.3,7.49-2.46c2.32-1.16,4.48-2.73,6.43-4.66c2.47-2.5,4.53-5.38,6.11-8.55
			c1.58-3.16,2.76-6.77,3.52-10.71c0.75-3.93,1.14-8.33,1.14-13.08c0-14.44-3.82-25.36-11.36-32.45
			C1818.34,1587.61,1815.05,1585.67,1811.47,1584.65z M1817.05,1622.76c0,10.91-2.42,18.7-7.19,23.14c-1.04,1-2.28,1.79-3.69,2.34
			c-1.43,0.56-2.83,0.91-4.17,1.05c-1.35,0.14-3.25,0.21-5.65,0.21h-10.64v-52.9h9.22c4.38,0,8.17,0.53,11.25,1.57
			c3.03,1.02,5.62,3.46,7.7,7.24C1815.98,1609.22,1817.05,1615.05,1817.05,1622.76z"/>
		<path class="st8" d="M1893.54,1649.5h-33.55v-21.71h29.82c2.36,0,4.14-0.61,5.29-1.82c1.15-1.2,1.73-2.78,1.73-4.67
			c0-1.9-0.59-3.46-1.76-4.63c-1.17-1.17-2.94-1.76-5.26-1.76h-29.82v-18.63h32.42c2.42,0,4.26-0.61,5.46-1.82
			c1.2-1.21,1.81-2.82,1.81-4.79c0-1.93-0.61-3.53-1.81-4.73s-3.04-1.82-5.46-1.82h-38.46c-2.11,0-3.88,0.35-5.26,1.04
			c-1.41,0.71-2.45,1.85-3.11,3.38c-0.64,1.5-0.96,3.45-0.96,5.8v59.47c0,3.54,0.74,6.16,2.19,7.77c1.46,1.63,3.87,2.45,7.14,2.45
			h39.59c2.39,0,4.23-0.63,5.46-1.87c1.23-1.24,1.86-2.87,1.86-4.84c0-2.04-0.62-3.71-1.86-4.95
			C1897.77,1650.13,1895.93,1649.5,1893.54,1649.5z"/>
		<path class="st8" d="M1955.85,1649.07h-29.14v-57.19c0-3.35-0.72-5.9-2.13-7.57c-1.43-1.69-3.32-2.54-5.63-2.54
			c-2.27,0-4.14,0.87-5.53,2.57c-1.38,1.68-2.08,4.22-2.08,7.54v60.93c0,3.54,0.74,6.16,2.19,7.77c1.46,1.63,3.87,2.45,7.14,2.45
			h35.18c2.48,0,4.41-0.65,5.72-1.92c1.32-1.28,1.99-2.96,1.99-5.01c0-2.01-0.67-3.7-2.01-5.03
			C1960.22,1649.75,1958.3,1649.07,1955.85,1649.07z"/>
		<path class="st8" d="M2021.25,1649.5h-33.55v-21.71h29.82c2.36,0,4.14-0.61,5.29-1.82c1.15-1.21,1.73-2.78,1.73-4.67
			c0-1.9-0.59-3.46-1.76-4.63c-1.17-1.17-2.94-1.76-5.26-1.76h-29.82v-18.63h32.42c2.42,0,4.26-0.61,5.46-1.82
			c1.2-1.21,1.81-2.82,1.81-4.79c0-1.94-0.61-3.53-1.81-4.73c-1.2-1.21-3.04-1.82-5.46-1.82h-38.47c-2.11,0-3.88,0.35-5.26,1.04
			c-1.41,0.71-2.45,1.85-3.11,3.38c-0.64,1.5-0.96,3.45-0.96,5.8v59.47c0,3.54,0.74,6.16,2.19,7.77c1.46,1.63,3.87,2.45,7.14,2.45
			h39.59c2.39,0,4.23-0.63,5.46-1.87c1.23-1.24,1.86-2.87,1.86-4.84c0-2.04-0.62-3.71-1.86-4.95
			C2025.47,1650.13,2023.64,1649.5,2021.25,1649.5z"/>
		<path class="st8" d="M2086.45,1583.12h-46.31c-2.48,0-4.41,0.64-5.74,1.89c-1.34,1.26-2.01,2.99-2.01,5.15
			c0,2.08,0.65,3.78,1.93,5.06c1.28,1.28,3.24,1.92,5.83,1.92h15.5v57.08c0,3.35,0.72,5.91,2.13,7.6c1.43,1.71,3.31,2.57,5.58,2.57
			c2.24,0,4.09-0.86,5.51-2.54c1.4-1.67,2.1-4.23,2.1-7.62v-57.08h15.5c2.58,0,4.56-0.65,5.87-1.92c1.32-1.28,1.99-2.98,1.99-5.06
			c0-2.08-0.66-3.79-1.96-5.08C2091.05,1583.78,2089.07,1583.12,2086.45,1583.12z"/>
		<path class="st8" d="M2156.53,1651.37c-1.23-1.24-3.07-1.87-5.46-1.87h-33.55v-21.71h29.82c2.36,0,4.14-0.61,5.29-1.82
			c1.15-1.2,1.73-2.78,1.73-4.67c0-1.9-0.59-3.46-1.76-4.63c-1.17-1.17-2.94-1.76-5.26-1.76h-29.82v-18.63h32.42
			c2.42,0,4.26-0.61,5.46-1.82c1.2-1.2,1.81-2.82,1.81-4.79c0-1.94-0.61-3.53-1.81-4.73c-1.2-1.21-3.04-1.82-5.46-1.82h-38.46
			c-2.11,0-3.88,0.35-5.26,1.04c-1.41,0.71-2.45,1.85-3.11,3.38c-0.64,1.5-0.96,3.45-0.96,5.8v59.47c0,3.54,0.74,6.16,2.19,7.77
			c1.46,1.63,3.86,2.45,7.14,2.45h39.59c2.39,0,4.23-0.63,5.46-1.87c1.23-1.24,1.86-2.87,1.86-4.84
			C2158.38,1654.28,2157.76,1652.62,2156.53,1651.37z"/>
	</g>
	<g>
		<path class="st56" d="M1633.24,1218.03c-1.13,1.53-13.4-2.47-14.45-3.06c-9.58-5.35-15.89-12.01-19.14-16.77
			c-2.63-3.86-4.04-12.24-3.03-13.15C1599.19,1182.7,1635.61,1214.81,1633.24,1218.03z"/>
		<path class="st30" d="M1622.62,1219.54c1.9-1.96,3.32-5.41,8.38-9.38c2.64-2.07,5.33-3.54,6.97-4.43c4.51-2.45,8.09-3.69,9-4.03
			c7.65-2.88,10.21-11.03,25.33-31.29c4-5.36,7.13-11.35,11.32-16.56c3.03-3.77,6.4-7.51,5.32-11.14c-0.46-1.56-1.76-3.14-3.42-3.65
			c-2.19-0.67-3.83,0.87-7.7,2.62c-4.5,2.03-4.82,1.1-9.21,2.9c-3.49,1.43-3.34,2.04-10.15,6.2c-5.02,3.06-4.77,2.53-11.28,6.41
			c-2.6,1.55-4.96,3.02-8.78,5.16c-6.99,3.92-7.97,3.98-8.69,3.58c-2.73-1.5-1.41-9.29-0.83-12.72c0.75-4.45,1.58-4.96,1.83-8.93
			c0.21-3.35,0.42-7.52-2.22-9.73c-1.32-1.11-3.5-1.84-4.88-1.03c-1.41,0.83-1.29,2.86-1.72,5.39c-0.34,1.99-1.67,4.72-4.33,10.18
			c-4.4,9.01-4.79,7.57-6.07,11.29c-1.79,5.17-1.85,10.33-1.92,16.75c-0.05,4.12,0.21,6.57-1.31,9.61
			c-1.59,3.17-4.07,4.87-5.18,5.66c-9.58,6.75-19.35,13.63-19.17,18.43C1584.23,1219.04,1614.1,1228.34,1622.62,1219.54z"/>
		<path class="st57" d="M1531.87,1254.66c-7-3.31-7-3.31-17.91-12c-11.86-9.45-19.27-19.4-27.49-30.46
			c-7.86-10.56-8.8-13.49-16.46-22.51c-10.82-12.75-39.07-47.7-64.26-49.61c-6.75-0.51,20.64,39.67,18.35,58.47
			c-4.93,40.56-1.91,35.99,2.36,40.35c7.78,7.94,37.52,38.24,57.05,54.52c16.2,13.5,32.07,24.98,52.4,16.44
			C1549.98,1303.94,1552.58,1264.45,1531.87,1254.66z"/>
		<path class="st57" d="M1517.23,1251.25c16.84-7.06,40.96-33.32,79.38-66.2c0,0,0.81,8.38,13.29,20.59
			c14.25,13.95,23.23,11.17,23.39,11.73c0.44,1.61-11.99,12.48-35.9,38.12c-9.84,10.55-20.58,20.24-30.51,30.71
			c-2.93,3.09-21.65,26.43-41.71,26.43C1511.85,1312.63,1512.24,1253.35,1517.23,1251.25z"/>
		<g>
			<path class="st56" d="M1519.53,1274.1L1519.53,1274.1c0.95-0.16,1.6-1.02,1.5-1.98c-0.43-3.93-0.29-9.24,2.05-14.64
				c0.52-1.19,1.12-2.35,1.81-3.46c0.51-0.81,0.31-1.88-0.47-2.43l0,0c-0.84-0.6-2.02-0.38-2.57,0.5c-0.79,1.27-1.49,2.6-2.08,3.96
				c-2.65,6.11-2.81,12.07-2.32,16.48C1517.56,1273.55,1518.51,1274.26,1519.53,1274.1z"/>
		</g>
		<path class="st30" d="M1241.41,1909.2c2,4.39-1.06,6.34-1.39,17.49c-0.48,16.13,5.66,20.52,2.22,25.54
			c-3.71,5.41-11.09,0.63-38.58,3.05c-5.86,0.52-9.33,1.07-11.1-1.11c-3.51-4.33,5.47-12.32,6.66-27.2
			c1.04-12.9-4.93-16.65-1.67-21.93C1204.1,1894.46,1235.85,1896.95,1241.41,1909.2z"/>
		<path class="st30" d="M1368.81,1935.29c-0.9-5.11-6.77-7.78-6.94-16.1c-0.09-4.3,1.41-7.37-0.55-9.71
			c-1.98-2.36-5.85-2.04-8.05-1.94c-18.57,0.81-29.04-9.9-34.97-4.16c-1.97,1.91-2.66,4.88-3.33,7.77
			c-0.95,4.08-0.57,7.37-0.28,9.71c1.83,14.71,2.75,22.12,3.33,24.42c2.9,11.53,4.35,17.3,7.22,19.15
			C1337.58,1972.41,1371.2,1948.81,1368.81,1935.29z"/>
		<path class="st58" d="M1401.45,1430.05c15.49,17.17,12.98,210.96,7.32,258.01c-3.18,26.37-18.82,102.52-18.82,102.52
			c-5.68,28.54-7.4,27.63-10.63,46.08c-8.16,46.57-10.78,71.15-11.82,79.17c-1.73,13.4-48.43,12.29-54.06,0
			c-2.91-6.36-4.2-32.14,3.55-81.53c0.55-3.52,8.2-52.96,9.45-94.53c1.06-35-2.84-62.33-10.63-116.98
			c-10.77-75.5-17.25-165.99-4.39-180.94C1329.92,1420.34,1382.48,1409.02,1401.45,1430.05z"/>
		<path class="st59" d="M1326.44,1739.77c1.06-35-2.84-62.33-10.63-116.98c-10.77-75.5-26.47-143.35-13.61-158.3
			c18.51-21.51,65.09-25.66,51.6-11.16c-13.44,14.44-21.33,114.43-13.52,190.3c5.65,54.92,8.48,82.38,6.05,117.31
			c-2.88,41.49-12.45,90.59-13.14,94.09c-6.43,32.59-8.46,54.92-8.32,68.13c-5.61-1.63-9.94-4.09-11.42-7.32
			c-2.91-6.36-4.2-32.14,3.55-81.53C1317.54,1830.78,1325.18,1781.34,1326.44,1739.77z"/>
		<path class="st58" d="M1335,1455.69c8.4,19.49-5.74,90.2-18.72,174.19c-5.36,34.66-7.78,63.21-21.27,102.8
			c-2.41,7.07-3.07,8.32-7.09,20.09c-6.64,19.43-17.35,50.75-23.63,79.17c-12.66,57.25-12.98,67.34-16.38,81.41
			c-2.71,11.2-43.59,10.39-51.2,1.74c-3.78-4.29-9.02-39.68-0.95-91.42c6.8-43.58,13.16-51.4,18.91-90.98
			c2.03-13.99,2.93-36.9,4.73-82.71c1.76-44.93,8.72-89.77,7.09-134.7c-0.73-20.09-11.2-75.03-4.48-81.18
			C1240.75,1416.93,1317.33,1414.68,1335,1455.69z"/>
		<path class="st59" d="M1195.75,1823.66c6.8-43.58,13.16-51.4,18.91-90.98c2.03-13.99,2.93-36.9,4.73-82.71
			c1.76-44.93,8.72-89.77,7.09-134.7c-0.73-20.09-12.62-90.24-5.9-96.39c14.33-13.11,24.78-8.7,26.96,11.29
			c8.32,76.09-7.24,188.07-9,233c-1.8,45.81-2.7,68.72-4.73,82.71c-5.74,39.58-12.11,47.4-18.91,90.98
			c-6.29,40.31-4.5,70.68-1.61,84.17c-7.51-0.96-13.99-3-16.59-5.95C1192.92,1910.79,1187.68,1875.41,1195.75,1823.66z"/>
		<path class="st60" d="M1365.14,1928.24c5.7-0.33,7.56,6.75,18.91,16.54c6.69,5.77,10.94,9.44,17.72,11.23
			c3.81,1,10.02,1.26,22.45,1.77c6.01,0.25,8.7,0.24,11.23,2.36c3.85,3.24,5.48,9.87,2.95,13.59c-2.06,3.04-6.42,3.41-8.27,3.54
			c-24.48,1.74-36.72,2.61-41.95,2.36c-7.03-0.33-36.68-1.38-60.85,0c-3.49,0.2-11.71,0.73-15.36-4.14
			c-1.14-1.52-1.84-3.58-1.18-11.82c0.91-11.46,1.8-22.5,6.5-23.63c2.32-0.56,3.07,1.9,8.86,4.14c1.87,0.72,7.69,2.97,13.59,1.77
			c2.1-0.42,3.83-1.21,14.77-10.04C1363.05,1929.01,1363.42,1928.34,1365.14,1928.24z"/>
		<path class="st60" d="M1243.01,1937.69c3,1.6,1.93,6.4,2.95,15.95c1.6,14.94,5.97,19.41,2.95,23.63c-1.59,2.23-4.1,2.8-14.77,3.54
			c-30.21,2.11-30.13-1.11-44.31,1.18c-5.52,0.89-8.48-1.06-10.11-3c-2.46-2.91,2.23-5.36,6.57-18.27
			c4.45-13.26,3.93-22.33,8.86-23.63c2.46-0.65,3.55,1.35,7.09,0.59c4.28-0.92,4.47-4.23,8.86-6.5c4.85-2.5,11.97-2.26,15.36,1.18
			c2.48,2.52,1.23,4.98,3.54,6.5C1233.9,1941.43,1239.21,1935.66,1243.01,1937.69z"/>
		<path class="st61" d="M1310.78,1963.69c0.91-11.46,1.8-22.5,6.5-23.63c2.32-0.56,3.07,1.9,8.86,4.14c0.71,0.27,2,0.77,3.64,1.21
			c11.19,12.05,21.91,17.2,28.21,19.58c12.55,4.76,27.33,5.11,56.9,5.83c9.84,0.24,18.25,0.19,24.6,0.07
			c-0.17,1.05-0.53,2.02-1.09,2.84c-2.06,3.04-6.42,3.41-8.27,3.54c-24.48,1.74-36.72,2.61-41.95,2.36
			c-7.03-0.33-36.68-1.38-60.85,0c-3.49,0.2-11.71,0.73-15.36-4.14C1310.82,1973.98,1310.12,1971.92,1310.78,1963.69z"/>
		<path class="st62" d="M1314.57,1983.1h117.04c2.23,0,5.74-8.18,5.74-8.18h-125.01C1310.11,1974.91,1312.34,1983.1,1314.57,1983.1z
			"/>
		<path class="st61" d="M1186.3,1960.73c4.45-13.26,3.93-22.33,8.86-23.63c0.25-0.07,0.48-0.1,0.71-0.12
			c-0.87,3.53-1.41,8.26-0.25,13.57c0.58,2.64,2,8.77,7.22,13.6c3.46,3.2,7.41,4.75,11.93,5.83c11.08,2.64,24.97,2.27,34.88,1.48
			c0.5,2.41,0.47,4.13-0.73,5.81c-1.59,2.23-4.1,2.8-14.77,3.54c-30.21,2.11-30.13-1.11-44.31,1.18c-5.52,0.89-8.48-1.06-10.11-3
			C1177.27,1976.1,1181.96,1973.65,1186.3,1960.73z"/>
		<path class="st62" d="M1180.94,1983.1h67.57c2.23,0,3.89-8.18,1.67-8.18h-70.49C1177.47,1974.91,1178.71,1983.1,1180.94,1983.1z"
			/>
		<path class="st57" d="M1217.53,1455.69c-15.66-77.23,4.09-297.6,9.52-304.26c16.46-20.22,108.8-25.7,113.65-25.7
			c8.47,0,70.4,14.58,73.02,17.18c2.48,2.46,32.95,14.89,3.74,305.81c-0.51,5.04-4.31,9.13-9.3,10.02
			c-21.37,3.81-42.89,4.56-70.97,5.49C1283.54,1466.02,1251.72,1464.53,1217.53,1455.69z"/>
		<path class="st56" d="M1265.78,1463.64c-15.51,0-37.24-5.1-48.26-7.94c-15.66-77.23-4.7-163.98-4.91-173.89
			c-0.3-14.01,9.39-23.31,16.84-30.22c1.56,11.99,21.77-27.99,20.41-5.92C1243.55,1348.58,1263.87,1452.53,1265.78,1463.64z"/>
		<g>
			<g>
				<path class="st30" d="M1369.13,1064.96c0.17-0.26,3.51-5.12,7.49-4.11c3.83,0.98,5.88,6.79,6.31,10.47
					c1.01,8.78-6.99,18.2-11.2,17.08C1367.04,1087.17,1364.23,1072.32,1369.13,1064.96z"/>
			</g>
			<g>
				<path class="st35" d="M1373.51,1082.76c1.24-0.02,2.39-1.66,3-2.7c1.46-2.51,2.55-6.33,0.84-8.85
					c-0.98-1.44-3.09-2.62-5.08-1.98c-1.39,0.45-2.43,1.71-2.82,3.34c-0.14,0.6,0.27,1.23,0.84,1.31l0,0
					c0.44,0.06,0.8-0.24,0.92-0.69c0.25-1.02,0.87-1.79,1.69-2.05c1.12-0.36,2.44,0.33,3.02,1.18c0.63,0.92,0.63,2.52,0.02,4.38
					c-0.76,2.31-2.53,4.02-2.52,4.09c0,0,2.56-3.11,0,0C1371.93,1082.62,1373.38,1082.77,1373.51,1082.76z"/>
			</g>
			<g>
				<path class="st35" d="M1368.78,1088.26c-0.12-0.57,0.22-1.1,0.74-1.15l0,0c0.47-0.04,0.92,0.33,1.02,0.85
					c0.26,1.24,0.61,1.44,1.4,1.42h0c1.58-0.03,2.23-1.47,2.7-3.02c0.17-0.57,0.32-1.06,0.88-1.17c1.79-0.34,4.92-5,5.57-10.75
					c0.35-3.09-0.07-5.88-1.25-8.3c-0.47-0.96-1.1-2.26-2.4-2.95c-1.38-0.73-2.73-0.35-3.31-0.18c-2.04,0.57-3.22,2.26-3.83,3.44
					c-0.22,0.43-0.71,0.57-1.14,0.34l0,0c-0.49-0.26-0.71-0.92-0.45-1.41c0.75-1.46,2.24-3.56,4.85-4.29
					c0.7-0.2,2.57-0.72,4.57,0.33c1.89,0.99,2.77,2.81,3.3,3.89c0.94,1.93,1.96,5.14,1.46,9.51c-0.69,6.09-3.89,11.23-6.5,12.19
					c-0.01,0.03-0.02,0.05-0.03,0.08c-0.35,1.15-1.27,4.2-4.26,4.26h0C1369.82,1091.41,1369.09,1089.71,1368.78,1088.26z
					 M1375.96,1087.15L1375.96,1087.15L1375.96,1087.15z"/>
			</g>
			<path class="st35" d="M1369.69,1073.51c-0.1,0.29,0.84,0.65,1.6,1.73c1.48,2.1,0.79,4.75,1.16,4.83
				c0.27,0.06,0.81-1.38,0.76-2.94c-0.03-0.71-0.08-2.16-1.06-3.07C1371.22,1073.21,1369.81,1073.17,1369.69,1073.51z"/>
		</g>
		<path class="st63" d="M1295.72,1120.13c3.96-9.39,16.47-12.78,23.09-14.58c3.32-0.9,14.01-3.45,27.14,0
			c6.11,1.6,35.7,11.07,27.93,33.63c-0.71,2.05-4.39,13.91-16.13,20.66c-9.32,5.36-18.23,4.4-23.75,3.8
			c-3.7-0.4-17.74-1.93-29.34-12.77C1292.19,1139.26,1293.27,1125.93,1295.72,1120.13z"/>
		<path class="st30" d="M1364.39,1118.43c1.25,2.01-2.91,5.81-1.1,11.51c0.83,2.62,2.03,2.82,2.74,4.93
			c1.84,5.47-3.26,12.78-7.68,16.45c-8.71,7.24-20.63,5.18-25.22,4.39c-16.56-2.86-32.84-15.74-32.35-26.32
			c0.1-2.11-0.11-4.65,1.1-9.32c1.05-4.08-0.06-7.69-0.55-12.06c-1.48-13.36-3.17-17.65-2.19-18.09
			c2.54-1.17,10.42,29.79,29.61,34.54C1343.99,1128.23,1361.87,1114.37,1364.39,1118.43z"/>
		<path class="st35" d="M1326.73,1134.53c-11.51-6.14-21.12-19.86-27-38.07c-0.76-4.51-1.19-6.27-0.58-6.55
			c2.54-1.17,10.42,29.79,29.61,34.54c15.24,3.78,33.11-10.08,35.64-6.03c1.25,2.01-2.91,5.81-1.1,11.51
			c0.57,1.81,0.89,2.18,1.53,3.1c-2.96,2.15-7.54,5.76-12.75,6.78C1340.77,1142.03,1331.57,1137.12,1326.73,1134.53z"/>
		<path class="st30" d="M1372.44,1101.89c-1.11,7.11-1.75,9.38-2.82,11.85c-0.75,1.73-4.84,11.15-13.54,15.8
			c-13.47,7.19-29.51-1.62-32.72-3.38c-12.62-6.93-18.19-17.94-25.39-32.16c-2.16-4.27-8.14-16.72-11.28-34.41
			c-2.9-16.35-4.35-24.53-0.56-32.72c8.97-19.39,36.81-21.69,40.62-22c7.35-0.61,21.56-1.78,32.72,7.9
			c0.55,0.48,6.41,11.22,12.41,23.69C1376.86,1046.8,1375.21,1084.21,1372.44,1101.89z"/>
		<g>
			<path class="st64" d="M1309.52,1067.95L1309.52,1067.95c-0.3-1.22,0.36-2.46,1.44-2.75c4.33-1.13,8.76-1.7,13.2-1.7
				c2.79,0,5.6,0.23,8.38,0.68c1.1,0.18,1.86,1.36,1.68,2.6l0,0c-0.17,1.17-1.12,1.98-2.16,1.81c-2.6-0.42-5.24-0.64-7.85-0.64
				c-4.15,0-8.3,0.53-12.36,1.59C1310.82,1069.81,1309.8,1069.1,1309.52,1067.95z"/>
		</g>
		<g>
			<path class="st64" d="M1370.02,1061.79L1370.02,1061.79c0.02-1.25-0.71-2.37-1.6-2.48c-3.6-0.44-7.18-0.32-10.66,0.37
				c-2.19,0.43-4.36,1.09-6.47,1.96c-0.83,0.35-1.23,1.62-0.87,2.82l0,0c0.34,1.13,1.22,1.78,2.01,1.45
				c1.97-0.82,4.01-1.44,6.06-1.84c3.26-0.64,6.62-0.76,9.99-0.34C1369.31,1063.83,1369.99,1062.97,1370.02,1061.79z"/>
		</g>
		<g>
			<path class="st35" d="M1346.59,1078.28c-1.07-4.45-1.89-8.97-2.45-13.47c-0.08-0.63-0.7-1.1-1.4-1.04
				c-0.71,0.06-1.23,0.63-1.15,1.27c0.57,4.58,1.4,9.19,2.49,13.71c0.52,2.16,1.02,3.98,1.46,5.59c1.22,4.47,1.84,6.71,0.75,8.26
				c-0.77,1.09-2.35,1.75-4.62,1.98c0.2,0.77,0.45,1.52,0.77,2.25c2.84-0.36,4.86-1.33,6.01-2.96c1.68-2.38,0.93-5.11-0.43-10.06
				C1347.6,1082.21,1347.11,1080.41,1346.59,1078.28z"/>
		</g>
		<path class="st64" d="M1328.94,1073.77c0.12,2.47-1.41,4.55-3.41,4.64c-2,0.09-3.71-1.83-3.83-4.3c-0.12-2.47,1.41-4.55,3.41-4.64
			C1327.11,1069.37,1328.83,1071.3,1328.94,1073.77z"/>
		<path class="st64" d="M1361.5,1070.15c0.12,2.47-1.41,4.55-3.41,4.64c-2,0.09-3.71-1.83-3.83-4.3s1.41-4.55,3.41-4.64
			C1359.67,1065.75,1361.39,1067.68,1361.5,1070.15z"/>
		<path class="st8" d="M1347.47,1110.4c5.49-0.78,8.39-4.74,9.61-7.78c0.42-1.04-0.67-2.01-1.87-1.67l-2.77,0.77
			c-3.99,1.11-8.12,1.75-12.27,1.89l-5.39,0.19c-1.23,0.04-1.95,1.25-1.29,2.13C1335.5,1108.53,1341.94,1111.18,1347.47,1110.4z"/>
		<path class="st31" d="M1329.22,1087.06c-0.24,2.59-4.39,4.42-9.26,4.09c-4.87-0.33-8.63-2.7-8.38-5.29s4.39-4.42,9.26-4.09
			C1325.71,1082.1,1329.46,1084.47,1329.22,1087.06z"/>
		<path class="st31" d="M1372.42,1079.05c0.46,2.22-2.56,4.58-6.75,5.27c-4.19,0.69-7.97-0.56-8.43-2.79
			c-0.46-2.22,2.56-4.58,6.75-5.27C1368.18,1075.58,1371.95,1076.83,1372.42,1079.05z"/>
		<path class="st30" d="M1202.67,1450.43c-1.15,1.9-2.21,8.98-4.29,23.06c-1.73,11.71-2.24,15.93-1.61,21.99
			c0.31,2.91,0.78,7.14,2.68,12.33c1.88,5.13,5.54,9.85,12.87,19.3c1.54,1.99,3.33,4.22,6.43,5.9c2.72,1.47,4.41,1.41,7.51,2.14
			c0.02,0.01,0.04,0.01,0.07,0.02c6.81,1.61,12.81,7.25,14.95,5.88c1.54-0.98,1.08-5.59-1.07-8.58c-1.95-2.71-3.96-2.22-5.9-4.29
			c-2.1-2.24-2.38-5.61-0.54-17.16c1.03-6.46,2.48-16.71,3.22-16.62c0.65,0.08,0.58,8.24,0.54,12.6c-0.03,3.23-0.14,5.51,0.8,8.58
			c0.92,2.99,2.22,4.76,2.95,5.63c0.96,1.15,3.82,4.55,6.17,3.75c1.56-0.53,2.31-2.72,2.41-4.29c0.17-2.77-1.67-4.03-2.68-6.7
			c-1.35-3.58-0.01-6.5,0.8-10.19c1.31-5.89,0.58-10.57-0.54-17.7c-1.22-7.84-3.95-9.61-9.38-20.91
			c-9.03-18.78-6.93-25.18-12.6-27.35C1218.33,1435.11,1207.55,1442.37,1202.67,1450.43z"/>
		<g>
			<g>
				<path class="st35" d="M1226.35,1533.76L1226.35,1533.76c0.34-0.64,0.2-1.49-0.32-1.92c-3.36-2.81-5.54-6.07-6.32-9.47
					c-0.21-0.93-0.37-2.68-0.46-5.2c-0.12-3.43-0.08-6.87,0.14-10.23c0.05-0.77-0.41-1.45-1.06-1.53h0
					c-0.65-0.08-1.24,0.5-1.29,1.29c-0.23,3.49-0.28,7.05-0.15,10.6c0.15,4.13,0.44,5.41,0.54,5.83c0.93,4.05,3.42,7.84,7.23,11.03
					C1225.23,1534.62,1225.99,1534.44,1226.35,1533.76z"/>
			</g>
			<g>
				<path class="st35" d="M1209.13,1518.79L1209.13,1518.79c0.64-0.09,1.1-0.78,1.03-1.55c-0.23-2.72-0.38-5.47-0.45-8.2
					c-0.05-1.95-0.06-3.92-0.03-5.88c0.01-0.78-0.49-1.42-1.13-1.44h0c-0.65-0.03-1.2,0.6-1.22,1.38c-0.03,2-0.02,4.02,0.03,6.03
					c0.07,2.79,0.22,5.61,0.46,8.4C1207.88,1518.31,1208.48,1518.88,1209.13,1518.79z"/>
			</g>
		</g>
		<path class="st65" d="M1252.28,1229.52c-0.09-5.84-3.25-21.45-5.41-41.11c-2.03-18.43-9.27-43.66-12.27-42.91
			c-23,5.77-38.36,55.89-39.44,62.55c-5,30.76-7.51,46.14-9.65,63.27c-2.76,22.06-4.43,35.58-5.9,54.69
			c-1,13.11-1.98,25.86-2.14,40.75c-0.53,47.72,10.56,81.3,17.7,89.61c5.36,6.25,34.75,2.32,40.75-8.1
			c3.19-5.54-3.43-44.22-3.75-72.93c-0.23-19.79-0.7-61.95,12.33-105.64C1247.2,1260.7,1252.65,1254.24,1252.28,1229.52z"/>
		<path class="st60" d="M1303.42,1026.48c3.81,2.58,6.83,4.6,11.2,6.13c7.84,2.73,16.33,4.73,25.65,2.75
			c6.17-1.31,20.39,0.68,26.28,6.27c8.02,7.62,7.29,18.68,9.25,19.32c5.18,1.69,5.64-6.79,6.73-13.58
			c1.99-12.31-1.02-38.64-25.74-50.66c-4.6-2.24-11.71-3.97-21.67-4.18c-8.06-0.17-14.11,1.12-17.34,1.83
			c-3.9,0.85-8.09,1.8-13.01,4.18c-6.46,3.12-12.61,6.1-13.55,11.23C1289.85,1017.28,1300.56,1024.54,1303.42,1026.48z"/>
		<path class="st60" d="M1311.29,1024.59c-0.94,2.05-20.16,22.63-20.51,46.1c-0.13,8.67,6.41,18.56,5.5,18.45
			c-18.67-2.26-30.32-45.68-21.34-67.17c3.03-7.25,10-10.32,12.42-11.51c2.06-1.01,10.04-4.79,19.48-2.28
			C1315.21,1010.4,1312.14,1022.74,1311.29,1024.59z"/>
		<g>
			<g>
				<path class="st30" d="M1294.26,1074.48c-0.24-0.19-4.92-3.78-8.39-1.59c-3.34,2.11-3.49,8.28-2.75,11.91
					c1.76,8.66,12.37,16.14,16.03,13.77C1303.22,1095.94,1301.2,1079.96,1294.26,1074.48z"/>
			</g>
			<g>
				<path class="st35" d="M1295.61,1092.76c-1.19,0.36-2.79-0.83-3.69-1.64c-2.16-1.93-4.39-5.23-3.54-8.15
					c0.48-1.67,2.13-3.45,4.21-3.46c1.46,0,2.83,0.87,3.72,2.3c0.32,0.52,0.13,1.25-0.39,1.51l0,0c-0.4,0.19-0.84,0.02-1.09-0.37
					c-0.55-0.89-1.38-1.43-2.25-1.43c-1.18,0-2.22,1.07-2.51,2.06c-0.31,1.07,0.18,2.59,1.34,4.18c1.43,1.96,3.65,3.04,3.67,3.11
					c0,0-3.4-2.16,0,0C1297.08,1092.14,1295.74,1092.72,1295.61,1092.76z"/>
			</g>
			<g>
				<path class="st35" d="M1299.6,1100.51C1299.6,1100.51,1299.6,1100.51,1299.6,1100.51c-2.86,0.87-4.69-1.74-5.37-2.73
					c-0.02-0.02-0.03-0.05-0.05-0.07c-2.78-0.11-7.41-4-9.96-9.57c-1.82-4-1.85-7.37-1.56-9.5c0.17-1.2,0.44-3.2,1.93-4.73
					c1.58-1.62,3.51-1.7,4.24-1.73c2.71-0.11,4.78,1.42,5.94,2.58c0.39,0.39,0.39,1.08,0.01,1.48l0,0
					c-0.34,0.35-0.85,0.37-1.19,0.03c-0.94-0.93-2.59-2.17-4.7-2.08c-0.6,0.02-2,0.08-3.09,1.2c-1.02,1.05-1.22,2.49-1.37,3.54
					c-0.37,2.66,0.1,5.45,1.39,8.28c2.4,5.26,6.82,8.72,8.63,8.49c0.56-0.07,0.85,0.35,1.19,0.84c0.93,1.33,1.99,2.5,3.51,2.04l0,0
					c0.76-0.23,1.02-0.52,0.89-1.79c-0.06-0.52,0.25-1.02,0.71-1.12l0,0c0.51-0.12,1,0.28,1.06,0.86
					C1301.96,1097.99,1301.8,1099.84,1299.6,1100.51z M1294.64,1097.69L1294.64,1097.69L1294.64,1097.69z"/>
			</g>
			<path class="st35" d="M1296.37,1082.78c0.18,0.25-0.6,0.88-0.99,2.15c-0.75,2.45,0.72,4.77,0.39,4.95
				c-0.24,0.14-1.2-1.06-1.63-2.56c-0.2-0.69-0.59-2.08,0.06-3.25C1294.83,1082.96,1296.16,1082.49,1296.37,1082.78z"/>
		</g>
	</g>
</g>
</svg>
