<?xml version="1.0" encoding="utf-8"?>
<!-- Generator: Adobe Illustrator 28.0.0, SVG Export Plug-In . SVG Version: 6.00 Build 0)  -->
<svg version="1.1" id="Capa_1" xmlns="http://www.w3.org/2000/svg" xmlns:xlink="http://www.w3.org/1999/xlink" x="0px" y="0px"
	 viewBox="0 0 1920 1080" style="enable-background:new 0 0 1920 1080;" xml:space="preserve">
<style type="text/css">
	.st0{fill:url(#SVGID_1_);}
	.st1{opacity:0.99;fill:url(#SVGID_00000034812279895709910220000005682551879195134347_);enable-background:new    ;}
</style>
<g>
	<linearGradient id="SVGID_1_" gradientUnits="userSpaceOnUse" x1="478.7399" y1="540.3649" x2="1518.5028" y2="540.3649">
		<stop  offset="1" style="stop-color:#CCE0F4"/>
		<stop  offset="1" style="stop-color:#C3DAF0"/>
		<stop  offset="1" style="stop-color:#A9C9E4"/>
		<stop  offset="1" style="stop-color:#80AED1"/>
		<stop  offset="1" style="stop-color:#4689B7"/>
		<stop  offset="1" style="stop-color:#005B97"/>
	</linearGradient>
	<path class="st0" d="M1518.5,540.36c0,59.64-10.75,116.86-30.47,169.94c-9.62,25.9-21.38,50.82-35.07,74.55
		c-88.84,154-259.02,258.15-454.34,258.15c-195.34,0-365.5-104.15-454.35-258.15c-13.69-23.73-25.45-48.65-35.07-74.55
		c-19.72-53.08-30.47-110.29-30.47-169.94c0-206.5,128.8-383.91,312.96-461.24c9.8-4.12,19.74-7.94,29.84-11.48
		c55.27-19.36,114.9-29.92,177.09-29.92c62.18,0,121.81,10.55,177.08,29.92c10.1,3.54,20.05,7.37,29.85,11.48
		C1389.71,156.46,1518.5,333.87,1518.5,540.36z"/>
	
		<linearGradient id="SVGID_00000066509728780831245750000012174432384164316856_" gradientUnits="userSpaceOnUse" x1="998.6895" y1="1022.9578" x2="998.6895" y2="62.3225">
		<stop  offset="0" style="stop-color:#6DC5CB"/>
		<stop  offset="0.8899" style="stop-color:#CF61F7"/>
		<stop  offset="1" style="stop-color:#816FEE"/>
	</linearGradient>
	<path style="opacity:0.99;fill:url(#SVGID_00000066509728780831245750000012174432384164316856_);enable-background:new    ;" d="
		M1195.79,401.05l0,0.11l0.08-0.16C1195.84,401.01,1195.82,401.03,1195.79,401.05z M1328.99,674.23l-194.45-83.9
		c-9.48-18.54-5.95-53.56-3.82-68.71c0.65-4.63,2.47-9.01,5.3-12.73l3.78-4.96c12.11-15.9,20.17-34.58,22.86-54.39
		c0.2-1.47,0.36-2.87,0.49-4.2l0-0.02c0.42-4.24,0.52-7.67,0.52-10.01c0-2.18-0.09-3.41-0.09-3.5c0.89-0.48,2.05-0.82,3.59-0.95
		c7.89-0.52,13.35-5.62,15.94-13.97c4.64-14.94,8.05-30.18,11.1-45.46c2.34-11.69,0.84-23.38-2.14-34.86
		c-1.05-7.78-3.18-14.53-12.69-14.53h-0.61c0,0,0,0,0-0.02c-9.01-2.32-2.17-8.71-3.32-13.06c-0.02-1.19-0.05-3.09-0.07-4.28
		c2.1-16.25,0.45-32.64,1.74-48.93c0.41-4.96,0.54-9.9,0.54-14.85c0-5.64-0.18-11.28-0.32-16.94c-0.25-9.67-6.05-17.72-5.46-27.23
		c0.18-2.87,0.19-5.7,0.04-8.49c-0.65-12.48-4.48-24.14-11.32-35.01c-4.87-5.46-9.46-11.14-14.64-16.26
		c-0.45-0.44-0.91-0.88-1.36-1.31c-1.01-0.88-1.94-1.8-2.75-2.77c0,0,0,0,0,0c-0.03-0.03-0.06-0.07-0.09-0.1
		c-8.39-9.96-23.97-21.96-40.19-33.07c-17.19-18.94-33.93-30.73-33.93-30.73l8.06,13.91c-16.89-10.49-30.11-17.86-30.26-17.95
		c-2.9-0.02-5.79,0.09-8.69,0.47c-5.99-2.08-12.13-3.09-18.4-3.09c-0.18,0-0.36,0.02-0.54,0.02c-0.18,0-0.36-0.02-0.54-0.02
		c-2.81,0-5.59,0.25-8.34,0.67c-2.76-0.43-5.55-0.67-8.37-0.67c-0.18,0-0.36,0.02-0.54,0.02c-0.18,0-0.36-0.02-0.54-0.02
		c-0.27,0-0.53,0.03-0.8,0.03c-0.27,0-0.53-0.03-0.8-0.03c-0.18,0-0.36,0.02-0.54,0.02c-0.18,0-0.36-0.02-0.54-0.02
		c-2.82,0-5.61,0.24-8.37,0.67c-2.76-0.41-5.53-0.67-8.34-0.67c-0.18,0-0.36,0.02-0.54,0.02c-0.18,0-0.36-0.02-0.54-0.02
		c-6.28,0-12.41,1-18.4,3.09c-8.89-1.17-17.79,0.13-26.7,0.32c-6.35,7.63-22.34,12.26-28.09,19.99c-2.17,2.91-3.94,6.19-6.75,8.48
		c-1.63,1.32-3.53,2.26-5.25,3.46c-3.71,2.59-6.42,6.33-9.2,9.89c-9.85,12.6-21.46,23.82-34.4,33.22c-1.85,1.35-3.76,2.66-5.81,3.68
		c-2.56,2.91-5.07,5.87-7.66,8.76c-6.84,10.87-10.67,22.53-11.32,35.01c-0.15,2.79-0.14,5.62,0.04,8.5
		c0.59,9.51-5.21,17.56-5.46,27.23c-0.14,5.66-0.32,11.3-0.32,16.94c0,4.96,0.13,9.89,0.54,14.85c1.28,16.3-0.36,32.68,1.74,48.93
		c-0.02,1.19-0.05,3.09-0.08,4.28c-1.15,4.34,5.69,10.73-3.32,13.06c0,0.02,0,0.02,0,0.02h-0.61c-9.51,0-11.65,6.76-12.69,14.53
		c-2.98,11.49-4.48,23.17-2.14,34.86c3.05,15.28,6.46,30.52,11.1,45.46c2.59,8.35,8.05,13.44,15.94,13.97
		c1.55,0.13,2.71,0.48,3.6,0.95c0,0.09-0.09,1.32-0.09,3.5c0,2.34,0.11,5.77,0.53,10.01v0.02h0c0.13,1.32,0.29,2.72,0.49,4.2
		c2.69,19.8,10.75,38.49,22.86,54.39l3.78,4.96c2.84,3.72,4.65,8.1,5.3,12.73c2.13,15.14,5.65,50.17-3.82,68.71l-194.45,83.9
		c0,0-44.1,18.45-79.48,60.61c8.06,22.43,17.9,44.01,29.36,64.56c74.39,133.37,216.86,223.56,380.42,223.56
		c163.54,0,306.03-90.19,380.41-223.56c11.47-20.55,21.31-42.13,29.37-64.56C1373.09,692.68,1328.99,674.23,1328.99,674.23z
		 M848.83,401c0.03,0.02,0.05,0.03,0.08,0.05l0,0.11L848.83,401z"/>
</g>
</svg>
