<?xml version="1.0" encoding="utf-8"?>
<!-- Generator: Adobe Illustrator 28.0.0, SVG Export Plug-In . SVG Version: 6.00 Build 0)  -->
<svg version="1.1" id="Capa_1" xmlns="http://www.w3.org/2000/svg" xmlns:xlink="http://www.w3.org/1999/xlink" x="0px" y="0px"
	 viewBox="0 0 1039.8 1005.3" style="enable-background:new 0 0 1039.8 1005.3;" xml:space="preserve">
<style type="text/css">
	.st0{fill:url(#SVGID_1_);}
	.st1{opacity:0.99;fill:url(#SVGID_00000183963884304770334400000008330423234632246965_);enable-background:new    ;}
</style>
<g>
	
		<linearGradient id="SVGID_1_" gradientUnits="userSpaceOnUse" x1="0" y1="501.92" x2="1039.7699" y2="501.92" gradientTransform="matrix(1 0 0 -1 0 1004.56)">
		<stop  offset="1" style="stop-color:#CCE0F4"/>
		<stop  offset="1" style="stop-color:#C3DAF0"/>
		<stop  offset="1" style="stop-color:#A9C9E4"/>
		<stop  offset="1" style="stop-color:#80AED1"/>
		<stop  offset="1" style="stop-color:#4689B7"/>
		<stop  offset="1" style="stop-color:#005B97"/>
	</linearGradient>
	<path class="st0" d="M1039.8,502.6c0,59.6-10.8,116.9-30.5,169.9c-9.6,25.9-21.4,50.8-35.1,74.6c-88.8,154-259,258.2-454.3,258.2
		c-195.3,0-365.5-104.2-454.4-258.2c-13.7-23.7-25.5-48.7-35.1-74.6C10.8,619.5,0,562.3,0,502.6C0,296.1,128.8,118.7,313,41.4
		c9.8-4.1,19.7-7.9,29.8-11.5C398.1,10.6,457.7,0,519.9,0C582.1,0,641.7,10.5,697,29.9c10.1,3.5,20.1,7.4,29.8,11.5
		C911,118.7,1039.8,296.1,1039.8,502.6z"/>
	
		<linearGradient id="SVGID_00000173880023164645505920000004249161015396723105_" gradientUnits="userSpaceOnUse" x1="519.9404" y1="19.3201" x2="519.9404" y2="979.9501" gradientTransform="matrix(1 0 0 -1 0 1004.56)">
		<stop  offset="0" style="stop-color:#6DC5CB"/>
		<stop  offset="0.8899" style="stop-color:#CF61F7"/>
		<stop  offset="1" style="stop-color:#816FEE"/>
	</linearGradient>
	<path style="opacity:0.99;fill:url(#SVGID_00000173880023164645505920000004249161015396723105_);enable-background:new    ;" d="
		M717.1,363.3v0.1V363.3C717.1,363.3,717.1,363.3,717.1,363.3z M850.3,636.5l-194.4-83.9c-9.5-18.5-5.9-53.6-3.8-68.7
		c0.7-4.6,2.5-9,5.3-12.7l3.8-5c12.1-15.9,20.2-34.6,22.9-54.4c0.2-1.5,0.4-2.9,0.5-4.2v0c0.4-4.2,0.5-7.7,0.5-10
		c0-2.2-0.1-3.4-0.1-3.5c0.9-0.5,2.1-0.8,3.6-1c7.9-0.5,13.3-5.6,15.9-14c4.6-14.9,8.1-30.2,11.1-45.5c2.3-11.7,0.8-23.4-2.1-34.9
		c-1.1-7.8-3.2-14.5-12.7-14.5H700c0,0,0,0,0,0c-9-2.3-2.2-8.7-3.3-13.1c0-1.2-0.1-3.1-0.1-4.3c2.1-16.2,0.4-32.6,1.7-48.9
		c0.4-5,0.5-9.9,0.5-14.9c0-5.6-0.2-11.3-0.3-16.9c-0.2-9.7-6.1-17.7-5.5-27.2c0.2-2.9,0.2-5.7,0-8.5c-0.7-12.5-4.5-24.1-11.3-35
		c-4.9-5.5-9.5-11.1-14.6-16.3c-0.4-0.4-0.9-0.9-1.4-1.3c-1-0.9-1.9-1.8-2.8-2.8l0,0c0,0-0.1-0.1-0.1-0.1c-8.4-10-24-22-40.2-33.1
		c-17.2-18.9-33.9-30.7-33.9-30.7l8.1,13.9c-16.9-10.5-30.1-17.9-30.3-17.9c-2.9,0-5.8,0.1-8.7,0.5c-6-2.1-12.1-3.1-18.4-3.1
		c-0.2,0-0.4,0-0.5,0c-0.2,0-0.4,0-0.5,0c-2.8,0-5.6,0.2-8.3,0.7c-2.8-0.4-5.5-0.7-8.4-0.7c-0.2,0-0.4,0-0.5,0c-0.2,0-0.4,0-0.5,0
		c-0.3,0-0.5,0-0.8,0c-0.3,0-0.5,0-0.8,0c-0.2,0-0.4,0-0.5,0c-0.2,0-0.4,0-0.5,0c-2.8,0-5.6,0.2-8.4,0.7c-2.8-0.4-5.5-0.7-8.3-0.7
		c-0.2,0-0.4,0-0.5,0s-0.4,0-0.5,0c-6.3,0-12.4,1-18.4,3.1c-8.9-1.2-17.8,0.1-26.7,0.3c-6.3,7.6-22.3,12.3-28.1,20
		c-2.2,2.9-3.9,6.2-6.8,8.5c-1.6,1.3-3.5,2.3-5.2,3.5c-3.7,2.6-6.4,6.3-9.2,9.9c-9.8,12.6-21.5,23.8-34.4,33.2
		c-1.8,1.4-3.8,2.7-5.8,3.7c-2.6,2.9-5.1,5.9-7.7,8.8c-6.8,10.9-10.7,22.5-11.3,35c-0.2,2.8-0.1,5.6,0,8.5
		c0.6,9.5-5.2,17.6-5.5,27.2c-0.1,5.7-0.3,11.3-0.3,16.9c0,5,0.1,9.9,0.5,14.9c1.3,16.3-0.4,32.7,1.7,48.9c0,1.2,0,3.1-0.1,4.3
		c-1.2,4.3,5.7,10.7-3.3,13.1c0,0,0,0,0,0h-0.6c-9.5,0-11.7,6.8-12.7,14.5c-3,11.5-4.5,23.2-2.1,34.9c3,15.3,6.5,30.5,11.1,45.5
		c2.6,8.4,8,13.4,15.9,14c1.5,0.1,2.7,0.5,3.6,1c0,0.1-0.1,1.3-0.1,3.5c0,2.3,0.1,5.8,0.5,10v0l0,0c0.1,1.3,0.3,2.7,0.5,4.2
		c2.7,19.8,10.8,38.5,22.9,54.4l3.8,5c2.8,3.7,4.7,8.1,5.3,12.7c2.1,15.1,5.7,50.2-3.8,68.7l-194.5,83.9c0,0-44.1,18.5-79.5,60.6
		c8.1,22.4,17.9,44,29.4,64.6C213.9,895,356.4,985.2,519.9,985.2c163.5,0,306-90.2,380.4-223.6c11.5-20.6,21.3-42.1,29.4-64.6
		C894.4,655,850.3,636.5,850.3,636.5z M370.1,363.3C370.1,363.3,370.1,363.3,370.1,363.3l0.1,0.2L370.1,363.3z"/>
</g>
</svg>
