<?xml version="1.0" encoding="utf-8"?>
<!-- Generator: Adobe Illustrator 28.0.0, SVG Export Plug-In . SVG Version: 6.00 Build 0)  -->
<svg version="1.1" id="Capa_1" xmlns="http://www.w3.org/2000/svg" xmlns:xlink="http://www.w3.org/1999/xlink" x="0px" y="0px"
	 viewBox="0 0 1920 1080" style="enable-background:new 0 0 1920 1080;" xml:space="preserve">
<style type="text/css">
	.st0{fill:url(#SVGID_1_);}
	.st1{opacity:0.99;fill:url(#SVGID_00000014635884796215980050000015739541631515197318_);enable-background:new    ;}
</style>
<linearGradient id="SVGID_1_" gradientUnits="userSpaceOnUse" x1="997.0127" y1="15.6" x2="997.0127" y2="1065">
	<stop  offset="1" style="stop-color:#CCE0F4"/>
	<stop  offset="1" style="stop-color:#C3DAF0"/>
	<stop  offset="1" style="stop-color:#A9C9E4"/>
	<stop  offset="1" style="stop-color:#80AED1"/>
	<stop  offset="1" style="stop-color:#4689B7"/>
	<stop  offset="1" style="stop-color:#005B97"/>
</linearGradient>
<path class="st0" d="M1521.71,540.3c0,92.64-24.01,179.68-66.15,255.22C1365.9,956.28,1194.15,1065,997.01,1065
	c-197.15,0-368.89-108.72-458.55-269.48c-42.14-75.54-66.15-162.58-66.15-255.22c0-227.03,144.18-420.38,345.98-493.47
	C874.07,26.62,934.25,15.6,997.01,15.6s122.94,11.02,178.72,31.23C1377.53,119.92,1521.71,313.27,1521.71,540.3z"/>
<linearGradient id="SVGID_00000153702197477470431220000013766675653028702889_" gradientUnits="userSpaceOnUse" x1="996.9922" y1="1034.4312" x2="996.9922" y2="25.6286">
	<stop  offset="0" style="stop-color:#6DC5CB"/>
	<stop  offset="0.1169" style="stop-color:#CF61F7"/>
	<stop  offset="1" style="stop-color:#816FEE"/>
</linearGradient>
<path style="opacity:0.99;fill:url(#SVGID_00000153702197477470431220000013766675653028702889_);enable-background:new    ;" d="
	M1378.73,810.1c-74.65,133.82-217.62,224.33-381.73,224.33c-164.12,0-307.09-90.51-381.73-224.34
	c28.07-51.99,68.12-71.74,89.21-78.87c8.35-2.82,13.74-3.66,14.21-3.72c0.02-0.01,0.04-0.01,0.04-0.01
	c60.78-16.48,87.34-30.78,98.85-40.71c2.93-4.78,5.87-9.56,8.41-14.54c9.69-19.02,22.38-36.2,32.87-54.72
	c0.12-0.36,0.32-0.72,0.61-1.07c3.28-7.34,7.67-13.82,12.64-19.84c4.99-6.01,10.57-11.56,16.27-17.01c0.62-1.34,1.32-2.52,0.43-4.19
	c-9.67-18.18-13.97-37.82-16.95-58.05c-0.89-6.02-0.17-12.41-1.36-18.44c-8.12,1.11-13.96-1.57-18.03-5.15
	c-1.6-0.6-2.4-1.89-3.14-3.32c-1.82-2.29-3.08-4.61-3.89-6.35c-0.81-1.74-1.15-2.91-1.15-2.91c-3.57-7.74-5.49-15.99-7.94-24.29
	c-3.71-12.55-6.32-25.17-8.45-37.93c-0.94-5.68,1.07-11.45,5.37-15.28l-20.28-44.28c-27.9-133.92,33.54-171.2,33.54-171.2l1.69-1.39
	l44.12-36.15c0,0-16.06-41.83,0-77.11c4.42-9.71,11.28-18.94,21.6-26.65c14.02-10.49,34.41-18.18,63.72-20.53v-0.75h8.51
	c1.14-0.01,2.26-0.01,3.38,0h5.16c0.42,0,0.82,0,1.23,0c0.35,0,0.71,0,1.06,0c0.35,0,0.71,0,1.06,0c0.41,0,0.82,0,1.23,0h5.16
	c1.12-0.01,2.24-0.01,3.38,0h8.51v0.75c29.3,2.35,49.7,10.05,63.72,20.53c10.31,7.71,17.17,16.93,21.59,26.65
	c16.06,35.28,0,77.11,0,77.11l44.13,36.15l1.69,1.39c0,0,61.43,37.28,33.54,171.2l-20.29,44.28c4.3,3.83,6.32,9.6,5.38,15.28
	c-2.13,12.76-4.74,25.38-8.45,37.93c-2.45,8.29-4.36,16.55-7.94,24.29c0,0-0.35,1.17-1.15,2.91c-0.81,1.74-2.07,4.07-3.89,6.35
	c-0.73,1.43-1.53,2.72-3.14,3.32c-4.07,3.59-9.91,6.26-18.03,5.15c-1.18,6.03-0.47,12.42-1.36,18.44
	c-2.98,20.23-7.27,39.87-16.95,58.05c-0.89,1.67-0.19,2.85,0.43,4.19c5.7,5.45,11.28,11,16.27,17.01
	c4.97,6.02,9.36,12.5,12.64,19.84c0.29,0.35,0.49,0.71,0.61,1.07c10.49,18.52,23.18,35.7,32.87,54.72
	c2.54,4.98,5.48,9.76,8.42,14.54c11.5,9.93,38.06,24.23,98.85,40.71c0,0,0.01,0,0.04,0.01c0.47,0.07,5.85,0.9,14.21,3.72
	C1310.6,738.35,1350.65,758.11,1378.73,810.1z"/>
</svg>
