<?xml version="1.0" encoding="utf-8"?>
<!-- Generator: Adobe Illustrator 28.0.0, SVG Export Plug-In . SVG Version: 6.00 Build 0)  -->
<svg version="1.1" id="Capa_1" xmlns="http://www.w3.org/2000/svg" xmlns:xlink="http://www.w3.org/1999/xlink" x="0px" y="0px"
	 viewBox="0 0 1060.4 1075" style="enable-background:new 0 0 1060.4 1075;" xml:space="preserve">
<style type="text/css">
	.st0{fill:url(#SVGID_1_);}
	.st1{opacity:0.99;fill:url(#SVGID_00000053522435040054007130000008476876063621224351_);enable-background:new    ;}
</style>
<linearGradient id="SVGID_1_" gradientUnits="userSpaceOnUse" x1="530.2045" y1="1059.385" x2="530.2045" y2="9.985" gradientTransform="matrix(1 0 0 -1 0 1069.97)">
	<stop  offset="1" style="stop-color:#CCE0F4"/>
	<stop  offset="1" style="stop-color:#C3DAF0"/>
	<stop  offset="1" style="stop-color:#A9C9E4"/>
	<stop  offset="1" style="stop-color:#80AED1"/>
	<stop  offset="1" style="stop-color:#4689B7"/>
	<stop  offset="1" style="stop-color:#005B97"/>
</linearGradient>
<path class="st0" d="M1054.9,535.3c0,92.6-24,179.7-66.1,255.2C899.1,951.3,727.3,1060,530.2,1060c-197.2,0-368.9-108.7-458.6-269.5
	C29.5,715,5.5,627.9,5.5,535.3c0-227,144.2-420.4,346-493.5c55.8-20.2,116-31.2,178.7-31.2s122.9,11,178.7,31.2
	C910.7,114.9,1054.9,308.3,1054.9,535.3z"/>
<linearGradient id="SVGID_00000026850246270430917110000003109268416179843725_" gradientUnits="userSpaceOnUse" x1="535.699" y1="40.5551" x2="535.699" y2="1049.3625" gradientTransform="matrix(1 0 0 -1 0 1069.97)">
	<stop  offset="0" style="stop-color:#6DC5CB"/>
	<stop  offset="0.1169" style="stop-color:#CF61F7"/>
	<stop  offset="1" style="stop-color:#816FEE"/>
</linearGradient>
<path style="opacity:0.99;fill:url(#SVGID_00000026850246270430917110000003109268416179843725_);enable-background:new    ;" d="
	M917.4,805.1c-74.7,133.8-217.6,224.3-381.7,224.3c-164.1,0-307.1-90.5-381.7-224.3c28.1-52,68.1-71.7,89.2-78.9
	c8.3-2.8,13.7-3.7,14.2-3.7c0,0,0,0,0,0c60.8-16.5,87.3-30.8,98.8-40.7c2.9-4.8,5.9-9.6,8.4-14.5c9.7-19,22.4-36.2,32.9-54.7
	c0.1-0.4,0.3-0.7,0.6-1.1c3.3-7.3,7.7-13.8,12.6-19.8c5-6,10.6-11.6,16.3-17c0.6-1.3,1.3-2.5,0.4-4.2c-9.7-18.2-14-37.8-17-58
	c-0.9-6-0.2-12.4-1.4-18.4c-8.1,1.1-14-1.6-18-5.1c-1.6-0.6-2.4-1.9-3.1-3.3c-1.8-2.3-3.1-4.6-3.9-6.4c-0.8-1.7-1.2-2.9-1.2-2.9
	c-3.6-7.7-5.5-16-7.9-24.3c-3.7-12.5-6.3-25.2-8.5-37.9c-0.9-5.7,1.1-11.5,5.4-15.3l-20.3-44.3c-27.9-133.9,33.5-171.2,33.5-171.2
	l1.7-1.4l44.1-36.1c0,0-16.1-41.8,0-77.1c4.4-9.7,11.3-18.9,21.6-26.7c14-10.5,34.4-18.2,63.7-20.5v-0.8h8.5c1.1,0,2.3,0,3.4,0h5.2
	c0.4,0,0.8,0,1.2,0c0.3,0,0.7,0,1.1,0s0.7,0,1.1,0c0.4,0,0.8,0,1.2,0h5.2c1.1,0,2.2,0,3.4,0h8.5v0.8c29.3,2.4,49.7,10.1,63.7,20.5
	c10.3,7.7,17.2,16.9,21.6,26.7c16.1,35.3,0,77.1,0,77.1l44.1,36.1l1.7,1.4c0,0,61.4,37.3,33.5,171.2l-20.3,44.3
	c4.3,3.8,6.3,9.6,5.4,15.3c-2.1,12.8-4.7,25.4-8.4,37.9c-2.4,8.3-4.4,16.5-7.9,24.3c0,0-0.3,1.2-1.2,2.9c-0.8,1.7-2.1,4.1-3.9,6.4
	c-0.7,1.4-1.5,2.7-3.1,3.3c-4.1,3.6-9.9,6.3-18,5.1c-1.2,6-0.5,12.4-1.4,18.4c-3,20.2-7.3,39.9-16.9,58c-0.9,1.7-0.2,2.8,0.4,4.2
	c5.7,5.5,11.3,11,16.3,17c5,6,9.4,12.5,12.6,19.8c0.3,0.3,0.5,0.7,0.6,1.1c10.5,18.5,23.2,35.7,32.9,54.7c2.5,5,5.5,9.8,8.4,14.5
	c11.5,9.9,38.1,24.2,98.8,40.7c0,0,0,0,0,0c0.5,0.1,5.8,0.9,14.2,3.7C849.3,733.3,889.3,753.1,917.4,805.1z"/>
</svg>
